<svg xmlns="http://www.w3.org/2000/svg" xmlns:xlink="http://www.w3.org/1999/xlink" width="700" zoomAndPan="magnify" viewBox="0 0 525 374.999991" height="500" preserveAspectRatio="xMidYMid meet" version="1.0"><defs><g/><clipPath id="6393b7cab8"><path d="M 77.875 41.75 L 437.875 41.75 L 437.875 157.25 L 77.875 157.25 Z M 77.875 41.75 " clip-rule="nonzero"/></clipPath></defs><g fill="#116dff" fill-opacity="1"><g transform="translate(164.214817, 237.769525)"><g><path d="M 42.296875 0 L 58.695312 0 L 36.996094 -59.996094 L 19.898438 -59.996094 L -1.800781 0 L 14.699219 0 L 18 -10.5 L 38.996094 -10.5 Z M 21.898438 -22.898438 L 28.5 -44.097656 L 35.199219 -22.898438 Z M 21.898438 -22.898438 "/></g></g></g><g fill="#116dff" fill-opacity="1"><g transform="translate(224.969265, 237.769525)"><g><path d="M 68.195312 -59.996094 L 58.894531 -20.5 L 48.296875 -59.996094 L 34.398438 -59.996094 L 23.796875 -20.5 L 14.597656 -59.996094 L -1.601562 -59.996094 L 14 0 L 31.898438 0 L 41.398438 -38.199219 L 50.796875 0 L 68.695312 0 L 84.394531 -59.996094 Z M 68.195312 -59.996094 "/></g></g></g><g fill="#116dff" fill-opacity="1"><g transform="translate(311.421213, 237.769525)"><g><path d="M 20.796875 -13.300781 L 20.796875 -59.996094 L 5.5 -59.996094 L 5.5 0 L 39.898438 0 L 39.898438 -13.300781 Z M 20.796875 -13.300781 "/></g></g></g><g fill="#116dff" fill-opacity="1"><g transform="translate(16.426885, 291.299137)"><g><path d="M 13.90625 0.324219 C 18.746094 0.324219 22.976562 -2.441406 25.050781 -6.507812 L 19.683594 -9.230469 C 18.625 -7.117188 16.511719 -5.773438 13.90625 -5.773438 C 10.207031 -5.773438 7.441406 -8.5 7.441406 -12.199219 C 7.441406 -15.902344 10.207031 -18.625 13.90625 -18.625 C 16.511719 -18.625 18.625 -17.28125 19.683594 -15.167969 L 25.050781 -17.894531 C 22.976562 -21.960938 18.746094 -24.726562 13.90625 -24.726562 C 6.953125 -24.726562 1.382812 -19.113281 1.382812 -12.199219 C 1.382812 -5.285156 6.953125 0.324219 13.90625 0.324219 Z M 13.90625 0.324219 "/></g></g></g><g fill="#116dff" fill-opacity="1"><g transform="translate(42.49872, 291.299137)"><g><path d="M 17.203125 0 L 23.871094 0 L 15.046875 -24.398438 L 8.09375 -24.398438 L -0.730469 0 L 5.976562 0 L 7.320312 -4.269531 L 15.859375 -4.269531 Z M 8.90625 -9.3125 L 11.589844 -17.933594 L 14.316406 -9.3125 Z M 8.90625 -9.3125 "/></g></g></g><g fill="#116dff" fill-opacity="1"><g transform="translate(65.723928, 291.299137)"><g><path d="M 15.820312 -9.679688 C 18.625 -10.65625 20.578125 -13.378906 20.578125 -16.714844 C 20.578125 -20.941406 17.445312 -24.398438 13.09375 -24.398438 L 2.238281 -24.398438 L 2.238281 0 L 8.457031 0 L 8.457031 -8.945312 L 9.882812 -8.945312 L 15.574219 0 L 22.570312 0 Z M 12.078125 -13.949219 L 8.457031 -13.949219 L 8.457031 -18.992188 L 12.078125 -18.992188 C 13.542969 -18.992188 14.597656 -17.933594 14.597656 -16.46875 C 14.597656 -15.003906 13.542969 -13.949219 12.078125 -13.949219 Z M 12.078125 -13.949219 "/></g></g></g><g fill="#116dff" fill-opacity="1"><g transform="translate(87.973151, 291.299137)"><g><path d="M 13.09375 -24.398438 L 2.238281 -24.398438 L 2.238281 0 L 8.457031 0 L 8.457031 -9.554688 L 13.09375 -9.554688 C 17.324219 -9.554688 20.578125 -12.648438 20.578125 -16.875 C 20.578125 -21.023438 17.324219 -24.398438 13.09375 -24.398438 Z M 12.078125 -14.597656 L 8.457031 -14.597656 L 8.457031 -18.992188 L 12.078125 -18.992188 C 13.542969 -18.992188 14.597656 -18.097656 14.597656 -16.835938 C 14.597656 -15.535156 13.542969 -14.597656 12.078125 -14.597656 Z M 12.078125 -14.597656 "/></g></g></g><g fill="#116dff" fill-opacity="1"><g transform="translate(108.555061, 291.299137)"><g><path d="M 17.566406 -18.992188 L 17.566406 -24.398438 L 2.441406 -24.398438 L 2.441406 0 L 17.566406 0 L 17.566406 -5.410156 L 8.660156 -5.410156 L 8.660156 -9.515625 L 16.183594 -9.515625 L 16.183594 -14.882812 L 8.660156 -14.882812 L 8.660156 -18.992188 Z M 17.566406 -18.992188 "/></g></g></g><g fill="#116dff" fill-opacity="1"><g transform="translate(127.550995, 291.299137)"><g><path d="M 19.765625 -24.398438 L 19.765625 -9.476562 L 8.742188 -24.398438 L 2.238281 -24.398438 L 2.238281 0 L 8.457031 0 L 8.457031 -14.964844 L 19.4375 0 L 25.984375 0 L 25.984375 -24.398438 Z M 19.765625 -24.398438 "/></g></g></g><g fill="#116dff" fill-opacity="1"><g transform="translate(155.818798, 291.299137)"><g><path d="M 17.769531 -24.398438 L -0.367188 -24.398438 L -0.367188 -18.992188 L 5.613281 -18.992188 L 5.613281 0 L 11.792969 0 L 11.792969 -18.992188 L 17.769531 -18.992188 Z M 17.769531 -24.398438 "/></g></g></g><g fill="#116dff" fill-opacity="1"><g transform="translate(173.269424, 291.299137)"><g><path d="M 15.820312 -9.679688 C 18.625 -10.65625 20.578125 -13.378906 20.578125 -16.714844 C 20.578125 -20.941406 17.445312 -24.398438 13.09375 -24.398438 L 2.238281 -24.398438 L 2.238281 0 L 8.457031 0 L 8.457031 -8.945312 L 9.882812 -8.945312 L 15.574219 0 L 22.570312 0 Z M 12.078125 -13.949219 L 8.457031 -13.949219 L 8.457031 -18.992188 L 12.078125 -18.992188 C 13.542969 -18.992188 14.597656 -17.933594 14.597656 -16.46875 C 14.597656 -15.003906 13.542969 -13.949219 12.078125 -13.949219 Z M 12.078125 -13.949219 "/></g></g></g><g fill="#116dff" fill-opacity="1"><g transform="translate(195.518648, 291.299137)"><g><path d="M 22.652344 -24.398438 L 15.820312 -24.398438 L 11.019531 -16.753906 L 6.222656 -24.398438 L -0.691406 -24.398438 L 7.890625 -11.46875 L 7.890625 0 L 14.109375 0 L 14.109375 -11.507812 Z M 22.652344 -24.398438 "/></g></g></g><g fill="#116dff" fill-opacity="1"><g transform="translate(217.523872, 291.299137)"><g/></g></g><g fill="#116dff" fill-opacity="1"><g transform="translate(227.329273, 291.299137)"><g><path d="M 23.382812 -14.355469 L 20.617188 -14.355469 L 20.617188 -17.648438 L 14.597656 -17.648438 L 14.597656 -14.355469 L 11.792969 -14.355469 C 10.167969 -14.355469 8.824219 -15.574219 8.824219 -17.039062 C 8.824219 -18.257812 9.839844 -19.113281 10.816406 -19.152344 L 14.597656 -19.152344 L 14.597656 -24.359375 L 9.636719 -24.359375 C 5.691406 -24.726562 2.804688 -21.429688 2.804688 -17.488281 C 2.804688 -15.332031 3.660156 -13.460938 5.082031 -12.039062 C 3.742188 -10.777344 2.929688 -9.070312 2.929688 -7.15625 C 2.929688 -2.96875 6.792969 0.0390625 11.710938 0.0390625 C 16.917969 0.0390625 20.617188 -3.335938 20.617188 -7.96875 L 20.617188 -9.476562 L 23.382812 -9.476562 Z M 11.628906 -5.207031 C 10.042969 -5.207031 8.582031 -5.976562 8.582031 -7.238281 C 8.582031 -8.335938 9.71875 -9.476562 11.101562 -9.476562 L 14.597656 -9.476562 L 14.597656 -7.96875 C 14.597656 -6.34375 13.5 -5.207031 11.628906 -5.207031 Z M 11.628906 -5.207031 "/></g></g></g><g fill="#116dff" fill-opacity="1"><g transform="translate(251.44914, 291.299137)"><g/></g></g><g fill="#116dff" fill-opacity="1"><g transform="translate(261.254529, 291.299137)"><g><path d="M 2.238281 0 L 10.695312 0 C 17.40625 0 22.894531 -5.449219 22.894531 -12.199219 C 22.894531 -18.949219 17.40625 -24.398438 10.695312 -24.398438 L 2.238281 -24.398438 Z M 8.457031 -5.410156 L 8.457031 -18.992188 L 10.695312 -18.992188 C 14.070312 -18.992188 16.714844 -16.023438 16.714844 -12.199219 C 16.714844 -8.378906 14.070312 -5.410156 10.695312 -5.410156 Z M 8.457031 -5.410156 "/></g></g></g><g fill="#116dff" fill-opacity="1"><g transform="translate(285.577727, 291.299137)"><g><path d="M 17.566406 -18.992188 L 17.566406 -24.398438 L 2.441406 -24.398438 L 2.441406 0 L 17.566406 0 L 17.566406 -5.410156 L 8.660156 -5.410156 L 8.660156 -9.515625 L 16.183594 -9.515625 L 16.183594 -14.882812 L 8.660156 -14.882812 L 8.660156 -18.992188 Z M 17.566406 -18.992188 "/></g></g></g><g fill="#116dff" fill-opacity="1"><g transform="translate(304.573673, 291.299137)"><g><path d="M 16.917969 -24.398438 L 11.589844 -8.175781 L 6.261719 -24.398438 L -0.730469 -24.398438 L 8.09375 0 L 15.046875 0 L 23.871094 -24.398438 Z M 16.917969 -24.398438 "/></g></g></g><g fill="#116dff" fill-opacity="1"><g transform="translate(327.798881, 291.299137)"><g><path d="M 17.566406 -18.992188 L 17.566406 -24.398438 L 2.441406 -24.398438 L 2.441406 0 L 17.566406 0 L 17.566406 -5.410156 L 8.660156 -5.410156 L 8.660156 -9.515625 L 16.183594 -9.515625 L 16.183594 -14.882812 L 8.660156 -14.882812 L 8.660156 -18.992188 Z M 17.566406 -18.992188 "/></g></g></g><g fill="#116dff" fill-opacity="1"><g transform="translate(346.794802, 291.299137)"><g><path d="M 8.457031 -5.410156 L 8.457031 -24.398438 L 2.238281 -24.398438 L 2.238281 0 L 16.226562 0 L 16.226562 -5.410156 Z M 8.457031 -5.410156 "/></g></g></g><g fill="#116dff" fill-opacity="1"><g transform="translate(363.066114, 291.299137)"><g><path d="M 13.90625 0.324219 C 20.820312 0.324219 26.433594 -5.285156 26.433594 -12.199219 C 26.433594 -19.113281 20.820312 -24.726562 13.90625 -24.726562 C 6.953125 -24.726562 1.382812 -19.113281 1.382812 -12.199219 C 1.382812 -5.285156 6.953125 0.324219 13.90625 0.324219 Z M 13.90625 -5.773438 C 10.207031 -5.773438 7.441406 -8.5 7.441406 -12.199219 C 7.441406 -15.902344 10.207031 -18.625 13.90625 -18.625 C 17.566406 -18.625 20.332031 -15.902344 20.332031 -12.199219 C 20.332031 -8.5 17.566406 -5.773438 13.90625 -5.773438 Z M 13.90625 -5.773438 "/></g></g></g><g fill="#116dff" fill-opacity="1"><g transform="translate(390.886587, 291.299137)"><g><path d="M 13.09375 -24.398438 L 2.238281 -24.398438 L 2.238281 0 L 8.457031 0 L 8.457031 -9.554688 L 13.09375 -9.554688 C 17.324219 -9.554688 20.578125 -12.648438 20.578125 -16.875 C 20.578125 -21.023438 17.324219 -24.398438 13.09375 -24.398438 Z M 12.078125 -14.597656 L 8.457031 -14.597656 L 8.457031 -18.992188 L 12.078125 -18.992188 C 13.542969 -18.992188 14.597656 -18.097656 14.597656 -16.835938 C 14.597656 -15.535156 13.542969 -14.597656 12.078125 -14.597656 Z M 12.078125 -14.597656 "/></g></g></g><g fill="#116dff" fill-opacity="1"><g transform="translate(411.468497, 291.299137)"><g><path d="M 23.421875 -24.398438 L 16.183594 -8.863281 L 8.988281 -24.398438 L 2.238281 -24.398438 L 2.238281 0 L 8.457031 0 L 8.457031 -13.136719 L 14.519531 0 L 17.851562 0 L 23.910156 -13.054688 L 23.910156 0 L 30.132812 0 L 30.132812 -24.398438 Z M 23.421875 -24.398438 "/></g></g></g><g fill="#116dff" fill-opacity="1"><g transform="translate(443.884263, 291.299137)"><g><path d="M 17.566406 -18.992188 L 17.566406 -24.398438 L 2.441406 -24.398438 L 2.441406 0 L 17.566406 0 L 17.566406 -5.410156 L 8.660156 -5.410156 L 8.660156 -9.515625 L 16.183594 -9.515625 L 16.183594 -14.882812 L 8.660156 -14.882812 L 8.660156 -18.992188 Z M 17.566406 -18.992188 "/></g></g></g><g fill="#116dff" fill-opacity="1"><g transform="translate(462.880184, 291.299137)"><g><path d="M 19.765625 -24.398438 L 19.765625 -9.476562 L 8.742188 -24.398438 L 2.238281 -24.398438 L 2.238281 0 L 8.457031 0 L 8.457031 -14.964844 L 19.4375 0 L 25.984375 0 L 25.984375 -24.398438 Z M 19.765625 -24.398438 "/></g></g></g><g fill="#116dff" fill-opacity="1"><g transform="translate(491.148, 291.299137)"><g><path d="M 17.769531 -24.398438 L -0.367188 -24.398438 L -0.367188 -18.992188 L 5.613281 -18.992188 L 5.613281 0 L 11.792969 0 L 11.792969 -18.992188 L 17.769531 -18.992188 Z M 17.769531 -24.398438 "/></g></g></g><g clip-path="url(#6393b7cab8)"><path fill="#116dff" d="M 194.996094 83.894531 L 187.601562 84.988281 L 187.601562 91.328125 L 194.996094 90.421875 Z M 179.9375 99.28125 L 186.371094 98.933594 L 186.371094 92.628906 L 179.9375 93.417969 Z M 186.371094 85.167969 L 179.9375 86.121094 L 179.9375 92.265625 L 186.371094 91.476562 Z M 187.601562 98.867188 L 194.996094 98.472656 L 194.996094 91.574219 L 187.601562 92.480469 Z M 288.679688 92.421875 L 296.722656 91.988281 L 296.722656 84.109375 L 288.679688 85.097656 Z M 298.261719 91.910156 L 307.503906 91.414062 L 307.503906 82.792969 L 298.261719 83.925781 Z M 307.503906 73.191406 L 298.261719 74.558594 L 298.261719 82.480469 L 307.503906 81.347656 Z M 296.722656 74.785156 L 288.679688 75.976562 L 288.679688 83.65625 L 296.722656 82.671875 Z M 285.832031 144.445312 C 292.554688 143.671875 299.289062 143.007812 306.023438 142.4375 L 306.023438 107.921875 L 285.832031 110.484375 Z M 197.878906 140.367188 L 197.929688 140.464844 L 197.992188 140.429688 L 197.941406 140.332031 L 198.042969 140.277344 L 198.007812 140.214844 L 197.910156 140.269531 L 197.855469 140.171875 L 197.792969 140.203125 L 197.847656 140.300781 L 197.746094 140.351562 L 197.777344 140.414062 Z M 124.765625 140.269531 L 123.167969 135.246094 L 122.824219 135.359375 L 123.300781 136.933594 L 122.738281 135.386719 L 122.265625 135.535156 L 123.242188 138.742188 L 122.117188 135.578125 L 121.828125 135.671875 L 122.445312 137.71875 L 121.714844 135.707031 L 120.460938 136.105469 L 120.890625 137.527344 L 120.386719 136.125 L 120.085938 136.222656 L 120.703125 138.273438 L 119.972656 136.257812 L 118.492188 136.730469 L 119.0625 138.621094 L 118.386719 136.765625 L 118.058594 136.867188 L 118.675781 138.914062 L 117.945312 136.902344 L 116.789062 137.269531 L 117.449219 139.457031 L 116.667969 137.308594 L 116.003906 137.519531 L 116.507812 139.191406 L 115.910156 137.546875 L 115.34375 137.726562 L 116.9375 142.75 Z M 142.363281 125.242188 L 140.1875 119.851562 L 122.34375 127.042969 L 124.515625 132.433594 Z M 142.441406 122.53125 L 143.878906 126.105469 L 138.210938 134.816406 C 138.128906 134.945312 138.113281 135.105469 138.171875 135.246094 L 138.699219 136.550781 L 139.558594 136.203125 L 139.125 135.121094 L 144.796875 126.410156 C 144.878906 126.28125 144.894531 126.121094 144.839844 125.984375 L 143.132812 121.757812 C 143.039062 121.515625 142.765625 121.402344 142.53125 121.5 L 141.304688 121.992188 L 141.648438 122.851562 Z M 118.097656 146.410156 L 125.925781 143.921875 L 124.824219 140.457031 L 116.996094 142.945312 Z M 246.601562 117.375 C 250.792969 116.082031 254.328125 121.867188 254.328125 121.867188 L 255.242188 120.917969 C 255.242188 120.917969 247.882812 109.183594 242.226562 110.621094 C 237.359375 111.863281 234.726562 112.9375 234.726562 112.9375 L 233.714844 113.246094 C 233.320312 114.445312 232.277344 115.488281 230.851562 115.925781 C 229.425781 116.367188 227.972656 116.09375 226.972656 115.328125 L 223.53125 116.386719 L 226.117188 124.769531 L 229.210938 123.8125 C 229.210938 123.8125 230.175781 122.574219 232.628906 121.691406 C 234.785156 120.914062 237.679688 122.070312 238.265625 123.972656 C 238.28125 124.019531 238.292969 124.070312 238.304688 124.121094 L 244.753906 122.132812 C 244.519531 121.160156 244.027344 118.167969 246.601562 117.375 Z M 271.84375 131.125 C 271.691406 131.136719 271.546875 131.171875 271.410156 131.222656 L 270.109375 131.503906 C 269.832031 131.289062 269.453125 131.160156 269.03125 131.160156 C 268.613281 131.160156 268.234375 131.289062 267.957031 131.503906 L 266.65625 131.222656 C 266.519531 131.171875 266.375 131.136719 266.21875 131.125 L 266.195312 131.121094 L 266.195312 131.125 C 266.164062 131.125 266.132812 131.121094 266.101562 131.121094 C 265.324219 131.121094 264.699219 131.664062 264.699219 132.335938 C 264.699219 133.007812 265.328125 133.554688 266.101562 133.554688 C 266.246094 133.554688 266.382812 133.535156 266.515625 133.5 L 268.03125 133.300781 C 268.117188 133.355469 268.207031 133.402344 268.304688 133.445312 L 268.304688 134.855469 L 267.730469 134.855469 C 267.609375 134.855469 267.519531 134.949219 267.519531 135.066406 C 267.519531 135.183594 267.613281 135.277344 267.730469 135.277344 L 270.335938 135.277344 C 270.453125 135.277344 270.546875 135.183594 270.546875 135.066406 C 270.546875 134.949219 270.453125 134.855469 270.335938 134.855469 L 269.761719 134.855469 L 269.761719 133.445312 C 269.859375 133.402344 269.949219 133.355469 270.035156 133.300781 L 271.550781 133.5 C 271.683594 133.535156 271.820312 133.554688 271.964844 133.554688 C 272.738281 133.554688 273.363281 133.007812 273.363281 132.335938 C 273.363281 131.664062 272.738281 131.121094 271.964844 131.121094 C 271.933594 131.121094 271.898438 131.125 271.871094 131.125 L 271.871094 131.121094 Z M 267.105469 135.449219 C 266.902344 135.449219 266.738281 135.613281 266.738281 135.816406 C 266.738281 136.023438 266.902344 136.1875 267.105469 136.1875 L 270.882812 136.1875 C 271.089844 136.1875 271.253906 136.023438 271.253906 135.816406 C 271.253906 135.613281 271.089844 135.449219 270.882812 135.449219 Z M 171.871094 141.769531 C 171.769531 142.460938 171.402344 142.914062 171.847656 143.652344 C 172.699219 145.058594 173.363281 144.796875 175.007812 144.835938 C 175.296875 144.84375 175.460938 145.1875 175.65625 145.398438 C 175.875 145.6875 176.710938 145.230469 176.570312 144.972656 C 176.160156 144.472656 175.675781 144.03125 175.078125 143.976562 C 174.46875 143.921875 173.679688 144.28125 173.175781 143.933594 C 172.339844 143.351562 172.78125 142.238281 171.871094 141.769531 Z M 437.632812 157.152344 C 432.988281 156.628906 427.972656 156.128906 422.617188 155.648438 L 420.25 103.695312 L 385.597656 67.859375 L 373.660156 64.355469 L 373.660156 56.523438 L 363.371094 50.164062 L 357.390625 51.769531 L 357.390625 59.574219 L 296.667969 41.75 L 278.988281 64.449219 L 243.640625 68.929688 L 213.773438 96.183594 L 237.175781 69.167969 L 193.621094 51.164062 L 157.167969 106.3125 L 193.972656 61.015625 L 210.210938 103.253906 L 211.011719 120.632812 C 211.121094 119.65625 212.042969 110.089844 212.523438 105.089844 L 261.789062 102.140625 L 262.984375 127.789062 C 263.175781 126.078125 265.035156 106.902344 265.582031 101.269531 L 298.464844 53.324219 L 333.703125 101.6875 L 333.703125 150.867188 C 317.21875 150.390625 299.796875 150.066406 281.707031 149.914062 L 281.707031 142.367188 C 281.707031 140.402344 280.109375 138.808594 278.148438 138.808594 L 276.742188 138.808594 L 276.742188 137.929688 L 275.246094 137.929688 L 274.832031 138.53125 L 274.832031 138.5625 L 274.800781 138.5625 L 274.800781 138.808594 L 271.6875 138.808594 C 271.511719 138.488281 271.261719 138.203125 270.964844 137.96875 L 270.964844 136.390625 L 267.160156 136.390625 L 267.160156 137.96875 C 266.863281 138.203125 266.613281 138.488281 266.4375 138.808594 L 264.652344 138.808594 C 262.691406 138.808594 261.09375 140.40625 261.09375 142.371094 L 261.09375 143.933594 L 260.996094 143.933594 C 260.777344 143.933594 260.597656 144.113281 260.597656 144.332031 C 260.597656 144.554688 260.777344 144.730469 260.996094 144.730469 L 263.503906 144.730469 C 263.722656 144.730469 263.902344 144.550781 263.902344 144.332031 C 263.902344 144.117188 263.730469 143.9375 263.515625 143.933594 L 263.515625 142.371094 C 263.515625 141.738281 264.027344 141.230469 264.652344 141.230469 L 266.449219 141.230469 C 266.9375 142.09375 267.921875 142.6875 269.058594 142.6875 C 270.199219 142.6875 271.1875 142.097656 271.671875 141.230469 L 274.800781 141.230469 L 274.800781 141.507812 L 275.246094 142.183594 L 275.265625 142.140625 L 276.742188 142.140625 L 276.742188 141.234375 L 278.144531 141.234375 C 278.773438 141.234375 279.285156 141.746094 279.285156 142.371094 L 279.285156 149.902344 C 272.210938 149.847656 265.035156 149.816406 257.777344 149.816406 C 256.636719 149.816406 255.5 149.816406 254.363281 149.820312 L 244.878906 122.574219 L 238.441406 124.554688 L 238.597656 125.074219 L 245.238281 149.84375 C 239.09375 149.871094 233.015625 149.917969 227.019531 149.984375 C 226.898438 148.972656 226.601562 147.855469 226.128906 146.90625 C 225.910156 146.464844 225.230469 146.234375 224.820312 145.957031 C 224.722656 145.753906 224.664062 145.566406 224.664062 145.410156 C 224.648438 142.492188 223.875 139.980469 223.117188 137.644531 C 222.796875 136.652344 223.699219 136.246094 224.984375 136.210938 C 226.488281 136.171875 227.742188 135.832031 228.929688 134.824219 C 229.234375 134.617188 229.304688 134.609375 229.144531 134.277344 C 229.292969 134.21875 229.449219 133.882812 229.421875 133.726562 C 230.335938 133.164062 229.796875 130.429688 229.355469 129.984375 C 229.25 129.878906 229.183594 130.007812 229.164062 129.863281 C 229.144531 129.667969 229.0625 129.515625 228.878906 129.402344 C 229.15625 129.316406 228.84375 128.941406 228.554688 128.894531 C 227.097656 128.648438 225.609375 128.679688 224.132812 128.585938 C 223.738281 128.484375 222.964844 128.164062 222.601562 128.351562 C 222.074219 128.621094 221.566406 128.804688 221.066406 128.921875 C 221.066406 128.921875 221.066406 128.921875 221.066406 128.917969 C 221.058594 128.835938 220.664062 128.808594 220.140625 128.84375 C 220.09375 128.777344 220.035156 128.714844 219.933594 128.722656 L 219.625 128.753906 C 219.566406 128.757812 219.546875 128.835938 219.523438 128.902344 C 218.972656 128.976562 218.570312 129.085938 218.578125 129.167969 C 218.578125 129.171875 218.578125 129.171875 218.578125 129.171875 C 218.085938 129.179688 217.574219 129.183594 217.035156 129.203125 C 215.957031 128.78125 215.597656 129.148438 214.808594 129.578125 L 214.808594 129.574219 L 213.683594 129.84375 L 212.496094 130.109375 C 212.511719 130.671875 212.535156 131.238281 212.566406 131.808594 L 212.460938 131.816406 C 212.414062 131.355469 212.355469 130.894531 212.273438 130.4375 L 209.382812 130.597656 C 208.996094 130.617188 208.617188 130.714844 208.261719 130.882812 L 206.628906 131.59375 L 206.667969 132.058594 L 206.410156 132.101562 C 206.402344 132.226562 206.398438 132.351562 206.398438 132.476562 L 205.363281 132.753906 L 205.386719 133.035156 L 203.179688 133.175781 L 202.914062 133.296875 L 203.195312 133.382812 L 205.40625 133.238281 L 205.421875 133.445312 L 206.492188 133.75 C 206.503906 133.8125 206.515625 133.871094 206.523438 133.933594 L 206.8125 133.953125 L 206.847656 134.390625 L 208.503906 134.933594 C 208.882812 135.054688 209.300781 135.105469 209.683594 135.085938 L 212.59375 134.921875 C 212.585938 134.4375 212.578125 133.953125 212.5625 133.472656 L 212.671875 133.464844 C 212.710938 134.019531 212.757812 134.582031 212.8125 135.144531 L 214.109375 135.25 L 215.183594 135.429688 L 215.175781 135.359375 C 215.726562 135.480469 216.070312 135.527344 216.5 135.941406 C 217.011719 135.949219 217.382812 135.949219 217.640625 136.007812 C 217.734375 136.03125 217.816406 136.074219 217.882812 136.132812 L 216.617188 136.085938 C 216.414062 136.078125 216.371094 136.117188 216.445312 136.3125 C 216.75 137.097656 216.75 137.792969 216.472656 138.46875 C 216.425781 138.578125 216.527344 138.636719 216.644531 138.660156 L 217.703125 138.691406 C 217.488281 138.765625 217.210938 138.886719 217.394531 139.058594 C 217.589844 139.269531 218.527344 139.101562 218.589844 139.609375 C 218.808594 141.472656 220.121094 143.101562 220.242188 144.945312 C 220.210938 145.519531 220.03125 145.902344 219.75 146.199219 C 219.523438 146.441406 219.292969 146.578125 218.988281 146.621094 L 219.003906 146.96875 C 218.035156 147.164062 217.082031 147.492188 216.40625 148.078125 C 216.226562 148.234375 216.269531 148.535156 216.21875 148.769531 L 215.140625 150.144531 C 211.359375 150.199219 207.613281 150.265625 203.90625 150.339844 L 198.074219 139.394531 L 194.039062 142.699219 L 191.65625 150.609375 C 191.511719 150.613281 191.363281 150.617188 191.21875 150.621094 L 193.679688 142.460938 L 197.882812 139.019531 L 179.210938 103.957031 L 175.894531 105.722656 L 175.558594 106.089844 L 176.105469 106.210938 L 176.113281 106.242188 L 175.738281 106.652344 L 176.277344 106.773438 L 176.292969 106.808594 L 175.917969 107.222656 L 176.457031 107.339844 L 176.464844 107.378906 L 176.09375 107.789062 L 176.636719 107.90625 L 176.644531 107.945312 L 176.273438 108.355469 L 176.8125 108.476562 L 176.824219 108.511719 L 176.453125 108.921875 L 176.992188 109.042969 L 177.003906 109.082031 L 176.628906 109.488281 L 177.167969 109.609375 L 177.179688 109.648438 L 176.808594 110.058594 L 177.347656 110.179688 L 177.359375 110.214844 L 176.984375 110.621094 L 177.523438 110.742188 L 177.539062 110.78125 L 177.164062 111.191406 L 177.707031 111.308594 L 177.71875 111.351562 L 177.347656 111.757812 L 177.882812 111.875 L 177.894531 111.917969 L 177.519531 112.324219 L 178.058594 112.445312 L 178.070312 112.484375 L 177.699219 112.890625 L 178.234375 113.011719 L 178.25 113.054688 L 177.878906 113.457031 L 178.414062 113.578125 L 178.425781 113.621094 L 178.054688 114.023438 L 178.59375 114.144531 L 178.605469 114.1875 L 178.234375 114.589844 L 178.765625 114.710938 L 178.78125 114.753906 L 178.414062 115.15625 L 178.945312 115.273438 L 178.960938 115.320312 L 178.59375 115.722656 L 179.121094 115.839844 L 179.136719 115.886719 L 178.769531 116.289062 L 179.300781 116.40625 L 179.3125 116.453125 L 178.945312 116.855469 L 179.480469 116.972656 L 179.492188 117.019531 L 179.125 117.421875 L 179.660156 117.539062 L 179.671875 117.585938 L 179.304688 117.988281 L 179.832031 118.105469 L 179.847656 118.152344 L 179.480469 118.550781 L 180.011719 118.667969 L 180.027344 118.714844 L 179.664062 119.117188 L 180.195312 119.234375 L 180.207031 119.285156 L 179.839844 119.683594 L 180.371094 119.800781 L 180.386719 119.851562 L 180.019531 120.253906 L 180.546875 120.367188 L 180.566406 120.417969 L 180.199219 120.816406 L 180.726562 120.933594 L 180.746094 120.988281 L 180.378906 121.382812 L 180.90625 121.5 L 180.925781 121.550781 L 180.5625 121.949219 L 181.085938 122.066406 L 181.101562 122.117188 L 180.734375 122.515625 L 181.261719 122.628906 L 181.28125 122.683594 L 180.914062 123.082031 L 181.4375 123.199219 L 181.457031 123.253906 L 181.09375 123.648438 L 181.617188 123.761719 L 181.632812 123.816406 L 181.273438 124.210938 L 181.796875 124.328125 L 181.8125 124.382812 L 181.449219 124.777344 L 181.972656 124.894531 L 181.988281 124.953125 L 181.628906 125.347656 L 182.148438 125.464844 L 182.167969 125.519531 L 181.804688 125.914062 L 182.324219 126.03125 L 182.339844 126.085938 L 181.980469 126.480469 L 182.5 126.597656 L 182.515625 126.65625 L 182.15625 127.050781 L 182.679688 127.164062 L 182.699219 127.222656 L 182.339844 127.617188 L 182.855469 127.734375 L 182.875 127.792969 L 182.515625 128.183594 L 183.03125 128.296875 L 183.050781 128.359375 L 182.691406 128.746094 L 183.207031 128.863281 L 183.226562 128.921875 L 182.867188 129.316406 L 183.386719 129.429688 L 183.40625 129.492188 L 183.046875 129.882812 L 183.566406 129.996094 L 183.585938 130.058594 L 183.226562 130.449219 L 183.746094 130.5625 L 183.765625 130.625 L 183.40625 131.015625 L 183.921875 131.132812 L 183.941406 131.195312 L 183.582031 131.582031 L 184.097656 131.695312 L 184.113281 131.761719 L 183.761719 132.148438 L 184.273438 132.265625 L 184.296875 132.328125 L 183.9375 132.71875 L 184.449219 132.828125 L 184.46875 132.894531 L 184.113281 133.28125 L 184.625 133.398438 L 184.648438 133.460938 L 184.292969 133.851562 L 184.804688 133.964844 L 184.824219 134.035156 L 184.46875 134.421875 L 184.980469 134.53125 L 185 134.601562 L 184.648438 134.988281 L 185.160156 135.101562 L 185.179688 135.167969 L 184.828125 135.554688 L 185.335938 135.667969 L 185.355469 135.738281 L 185 136.121094 L 185.511719 136.234375 L 185.535156 136.300781 L 185.183594 136.6875 L 185.691406 136.800781 L 185.714844 136.871094 L 185.363281 137.257812 L 185.871094 137.367188 L 185.894531 137.4375 L 185.542969 137.824219 L 186.046875 137.933594 L 186.070312 138.007812 L 185.722656 138.390625 L 186.226562 138.503906 L 186.25 138.574219 L 185.898438 138.953125 L 186.40625 139.066406 L 186.429688 139.140625 L 186.074219 139.523438 L 186.582031 139.632812 L 186.605469 139.707031 L 186.253906 140.089844 L 186.761719 140.199219 L 186.78125 140.273438 L 186.433594 140.65625 L 186.9375 140.769531 L 186.960938 140.839844 L 186.613281 141.222656 L 187.113281 141.332031 L 187.136719 141.40625 L 186.789062 141.789062 L 187.292969 141.898438 L 187.316406 141.976562 L 186.96875 142.355469 L 187.46875 142.464844 L 187.496094 142.542969 L 187.144531 142.921875 L 187.648438 143.035156 L 187.671875 143.109375 L 187.324219 143.488281 L 187.828125 143.597656 L 187.851562 143.675781 L 187.503906 144.054688 L 188.007812 144.164062 L 188.03125 144.238281 L 187.683594 144.621094 L 188.1875 144.730469 L 188.210938 144.808594 L 187.863281 145.1875 L 188.363281 145.296875 L 188.386719 145.375 L 188.042969 145.75 L 188.542969 145.859375 L 188.566406 145.945312 L 188.21875 146.320312 L 188.71875 146.429688 L 188.742188 146.507812 L 188.398438 146.886719 L 188.894531 146.996094 L 188.921875 147.078125 L 188.578125 147.453125 L 189.074219 147.5625 L 189.097656 147.640625 L 188.757812 148.019531 L 189.25 148.128906 L 189.277344 148.210938 L 188.933594 148.585938 L 189.429688 148.695312 L 189.453125 148.777344 L 189.109375 149.152344 L 189.605469 149.261719 L 189.632812 149.34375 L 189.289062 149.71875 L 189.785156 149.828125 L 189.808594 149.914062 L 189.46875 150.289062 L 189.960938 150.394531 L 189.988281 150.480469 L 189.816406 150.667969 C 186.714844 150.746094 183.644531 150.828125 180.601562 150.917969 C 179.835938 149.324219 178.988281 147.816406 178.015625 146.261719 C 177.992188 146.171875 177.898438 146.132812 177.789062 146.113281 L 177.027344 144.800781 C 176.972656 144.679688 176.785156 144.660156 176.550781 144.703125 C 176.601562 144.761719 176.648438 144.820312 176.691406 144.875 C 176.699219 144.882812 176.703125 144.890625 176.707031 144.898438 C 176.792969 145.050781 176.761719 145.289062 176.429688 145.507812 C 176.265625 145.617188 176.070312 145.6875 175.894531 145.695312 C 175.730469 145.703125 175.578125 145.65625 175.480469 145.53125 C 175.46875 145.515625 175.386719 145.410156 175.351562 145.371094 C 175.304688 145.4375 175.285156 145.507812 175.292969 145.578125 C 175.292969 145.597656 175.300781 145.621094 175.3125 145.644531 C 175.320312 145.660156 176.035156 147.121094 176.035156 147.121094 C 176.023438 147.179688 176.023438 147.238281 176.039062 147.296875 C 176.042969 147.300781 176.042969 147.308594 176.042969 147.3125 C 176.050781 147.324219 176.050781 147.332031 176.054688 147.34375 C 176.054688 147.34375 176.058594 147.347656 176.058594 147.347656 C 176.550781 148.617188 177 149.835938 177.53125 151.015625 C 172.523438 151.167969 167.605469 151.335938 162.78125 151.515625 C 161.128906 148.316406 157.910156 142.082031 157.546875 141.382812 C 157.058594 140.4375 158.589844 139.042969 157.457031 136.855469 C 156.929688 135.832031 155.652344 134.699219 154.585938 134.625 L 155.699219 136.785156 C 156.109375 137.582031 155.910156 138.320312 154.925781 138.828125 C 153.941406 139.335938 153.226562 139.074219 152.8125 138.277344 L 152 136.703125 C 151.441406 137.617188 151.324219 138.726562 151.851562 139.75 C 152.984375 141.941406 155.003906 141.5 155.492188 142.445312 C 155.820312 143.078125 158.5 148.265625 160.226562 151.613281 C 155.753906 151.785156 151.371094 151.972656 147.082031 152.167969 L 141.074219 137.257812 L 141.511719 135.675781 L 136.5625 137.671875 L 137.976562 138.507812 L 143.546875 152.332031 C 137.683594 152.613281 132.003906 152.914062 126.527344 153.234375 C 125.671875 151.867188 124.6875 150.1875 124.402344 149.296875 C 123.726562 147.175781 126.023438 144.34375 126.023438 144.34375 L 125.957031 144.136719 L 118.132812 146.625 L 118.199219 146.832031 C 118.199219 146.832031 121.710938 147.820312 122.382812 149.941406 C 122.609375 150.667969 122.761719 152.085938 122.863281 153.457031 C 118.816406 153.703125 114.882812 153.960938 111.074219 154.230469 L 109.792969 152.222656 C 109.792969 152.222656 108.640625 151.402344 108.050781 150.488281 C 107.839844 150.164062 107.886719 149.183594 107.886719 149.183594 L 107.347656 148.328125 L 106.65625 148.742188 L 103.007812 142.660156 L 103.03125 142.195312 L 102.171875 140.625 L 101.625 140.953125 L 101.601562 140.964844 L 101.035156 141.304688 L 102.015625 142.800781 L 102.441406 143 L 106.085938 149.082031 L 105.398438 149.5 L 105.898438 150.371094 C 105.898438 150.371094 106.785156 150.792969 106.972656 151.132812 C 107.5 152.089844 107.679688 153.488281 107.679688 153.488281 L 108.214844 154.4375 C 96.90625 155.261719 86.734375 156.179688 77.902344 157.175781 L 437.632812 157.175781 Z M 199.167969 149.75 C 199.578125 149.324219 200.285156 149.363281 200.75 149.839844 C 200.910156 150 201.015625 150.191406 201.074219 150.394531 C 200.214844 150.414062 199.351562 150.433594 198.492188 150.449219 Z M 197.777344 140.09375 C 197.898438 140.027344 198.050781 140.074219 198.117188 140.195312 C 198.179688 140.320312 198.132812 140.472656 198.011719 140.539062 C 197.890625 140.601562 197.738281 140.554688 197.675781 140.433594 C 197.605469 140.3125 197.652344 140.160156 197.777344 140.09375 Z M 194.390625 142.894531 C 194.515625 142.828125 194.667969 142.875 194.734375 142.996094 C 194.796875 143.117188 194.75 143.273438 194.632812 143.339844 C 194.507812 143.402344 194.355469 143.355469 194.292969 143.234375 C 194.222656 143.113281 194.269531 142.957031 194.390625 142.894531 Z M 156.464844 141.726562 C 155.898438 142.019531 155.324219 142.0625 155.070312 141.863281 C 155.375 141.988281 155.902344 141.917969 156.421875 141.648438 C 156.941406 141.378906 157.308594 140.992188 157.378906 140.671875 C 157.398438 140.996094 157.03125 141.433594 156.464844 141.726562 Z M 167.910156 128.554688 C 167.53125 127.878906 166.902344 128.101562 166.960938 128.894531 C 167.28125 133.0625 167.59375 137.207031 168.371094 141.269531 C 168.75 143.25 170.746094 144.722656 171.976562 144.167969 C 171.878906 144.046875 171.78125 143.90625 171.6875 143.746094 C 171.320312 143.136719 171.449219 142.679688 171.570312 142.234375 C 171.609375 142.09375 171.648438 141.941406 171.671875 141.789062 L 167.839844 129.707031 L 171.878906 141.578125 C 171.90625 141.582031 171.933594 141.585938 171.957031 141.601562 C 172.5 141.878906 172.628906 142.371094 172.746094 142.800781 C 172.773438 142.910156 172.800781 143.019531 172.835938 143.121094 C 173.421875 141.789062 173.839844 139.304688 173.039062 137.597656 C 171.511719 134.351562 169.699219 131.761719 167.910156 128.554688 Z M 194.496094 143.164062 L 194.550781 143.261719 L 194.613281 143.226562 L 194.558594 143.132812 L 194.660156 143.078125 L 194.625 143.015625 L 194.523438 143.070312 L 194.472656 142.96875 L 194.410156 143.003906 L 194.464844 143.105469 L 194.363281 143.15625 L 194.398438 143.214844 Z M 194.496094 143.164062 " fill-opacity="1" fill-rule="nonzero"/></g></svg>