<svg xmlns="http://www.w3.org/2000/svg" xmlns:xlink="http://www.w3.org/1999/xlink" width="500" zoomAndPan="magnify" viewBox="0 0 375 374.999991" height="500" preserveAspectRatio="xMidYMid meet" version="1.0"><defs><g/></defs><g fill="#116dff" fill-opacity="1"><g transform="translate(64.720408, 302.357822)"><g><path d="M 1.75 -17.5 L 9.28125 -17.5 C 12.03125 -17.5 14.265625 -16.691406 15.984375 -15.078125 C 17.710938 -13.460938 18.578125 -11.351562 18.578125 -8.75 C 18.578125 -6.164062 17.703125 -4.0625 15.953125 -2.4375 C 14.203125 -0.8125 11.914062 0 9.09375 0 L 1.75 0 Z M 6.203125 -13.953125 L 6.203125 -3.546875 L 9.375 -3.546875 C 10.738281 -3.546875 11.859375 -4.023438 12.734375 -4.984375 C 13.609375 -5.941406 14.046875 -7.1875 14.046875 -8.71875 C 14.046875 -10.257812 13.585938 -11.515625 12.671875 -12.484375 C 11.753906 -13.460938 10.585938 -13.953125 9.171875 -13.953125 Z M 6.203125 -13.953125 "/></g></g></g><g fill="#116dff" fill-opacity="1"><g transform="translate(86.86737, 302.357822)"><g><path d="M 15.453125 -14 L 6.203125 -14 L 6.203125 -10.53125 L 14.546875 -10.53125 L 14.546875 -7.03125 L 6.203125 -7.03125 L 6.203125 -3.5 L 15.71875 -3.5 L 15.71875 0 L 1.75 0 L 1.75 -17.5 L 15.453125 -17.5 Z M 15.453125 -14 "/></g></g></g><g fill="#116dff" fill-opacity="1"><g transform="translate(106.689695, 302.357822)"><g><path d="M 11.375 0 L 6.78125 0 L -0.03125 -17.5 L 4.71875 -17.5 L 9.203125 -4.625 L 13.671875 -17.5 L 18.25 -17.5 Z M 11.375 0 "/></g></g></g><g fill="#116dff" fill-opacity="1"><g transform="translate(127.886812, 302.357822)"><g><path d="M 15.453125 -14 L 6.203125 -14 L 6.203125 -10.53125 L 14.546875 -10.53125 L 14.546875 -7.03125 L 6.203125 -7.03125 L 6.203125 -3.5 L 15.71875 -3.5 L 15.71875 0 L 1.75 0 L 1.75 -17.5 L 15.453125 -17.5 Z M 15.453125 -14 "/></g></g></g><g fill="#116dff" fill-opacity="1"><g transform="translate(147.709134, 302.357822)"><g><path d="M 6.203125 -3.71875 L 13.625 -3.71875 L 13.625 0 L 1.75 0 L 1.75 -17.5 L 6.203125 -17.5 Z M 6.203125 -3.71875 "/></g></g></g><g fill="#116dff" fill-opacity="1"><g transform="translate(164.681911, 302.357822)"><g><path d="M 10.046875 -17.65625 C 12.765625 -17.65625 15.023438 -16.804688 16.828125 -15.109375 C 18.628906 -13.421875 19.53125 -11.3125 19.53125 -8.78125 C 19.53125 -6.226562 18.625 -4.09375 16.8125 -2.375 C 15 -0.65625 12.742188 0.203125 10.046875 0.203125 C 7.347656 0.203125 5.097656 -0.648438 3.296875 -2.359375 C 1.492188 -4.066406 0.59375 -6.207031 0.59375 -8.78125 C 0.59375 -11.320312 1.492188 -13.4375 3.296875 -15.125 C 5.097656 -16.8125 7.347656 -17.65625 10.046875 -17.65625 Z M 10.09375 -13.921875 C 8.726562 -13.921875 7.5625 -13.425781 6.59375 -12.4375 C 5.632812 -11.445312 5.15625 -10.21875 5.15625 -8.75 C 5.15625 -7.28125 5.640625 -6.039062 6.609375 -5.03125 C 7.585938 -4.03125 8.75 -3.53125 10.09375 -3.53125 C 11.445312 -3.53125 12.59375 -4.03125 13.53125 -5.03125 C 14.476562 -6.039062 14.953125 -7.28125 14.953125 -8.75 C 14.953125 -10.21875 14.476562 -11.445312 13.53125 -12.4375 C 12.59375 -13.425781 11.445312 -13.921875 10.09375 -13.921875 Z M 10.09375 -13.921875 "/></g></g></g><g fill="#116dff" fill-opacity="1"><g transform="translate(187.778719, 302.357822)"><g><path d="M 1.75 -17.5 L 9.375 -17.5 C 11.601562 -17.5 13.332031 -16.96875 14.5625 -15.90625 C 15.800781 -14.851562 16.421875 -13.351562 16.421875 -11.40625 C 16.421875 -9.351562 15.800781 -7.757812 14.5625 -6.625 C 13.332031 -5.488281 11.601562 -4.921875 9.375 -4.921875 L 6.203125 -4.921875 L 6.203125 0 L 1.75 0 Z M 6.203125 -14 L 6.203125 -8.421875 L 9.15625 -8.421875 C 10.132812 -8.421875 10.890625 -8.660156 11.421875 -9.140625 C 11.953125 -9.628906 12.21875 -10.332031 12.21875 -11.25 C 12.21875 -12.144531 11.953125 -12.828125 11.421875 -13.296875 C 10.890625 -13.765625 10.132812 -14 9.15625 -14 Z M 6.203125 -14 "/></g></g></g><g fill="#116dff" fill-opacity="1"><g transform="translate(207.751027, 302.357822)"><g><path d="M 20.96875 0 L 17.046875 0 L 17.03125 -11.375 L 12.828125 -1.75 L 9.921875 -1.75 L 5.71875 -11.375 L 5.71875 0 L 1.75 0 L 1.75 -17.53125 L 6.625 -17.53125 L 11.375 -7.09375 L 16.125 -17.53125 L 20.96875 -17.53125 Z M 20.96875 0 "/></g></g></g><g fill="#116dff" fill-opacity="1"><g transform="translate(233.472423, 302.357822)"><g><path d="M 15.453125 -14 L 6.203125 -14 L 6.203125 -10.53125 L 14.546875 -10.53125 L 14.546875 -7.03125 L 6.203125 -7.03125 L 6.203125 -3.5 L 15.71875 -3.5 L 15.71875 0 L 1.75 0 L 1.75 -17.5 L 15.453125 -17.5 Z M 15.453125 -14 "/></g></g></g><g fill="#116dff" fill-opacity="1"><g transform="translate(253.294744, 302.357822)"><g><path d="M 17.90625 0 L 13.96875 0 L 5.921875 -10.78125 L 5.921875 0 L 1.75 0 L 1.75 -17.5 L 5.671875 -17.5 L 13.75 -6.703125 L 13.75 -17.5 L 17.90625 -17.5 Z M 17.90625 0 "/></g></g></g><g fill="#116dff" fill-opacity="1"><g transform="translate(275.916622, 302.357822)"><g><path d="M 15.125 -13.921875 L 9.84375 -13.921875 L 9.84375 0 L 5.40625 0 L 5.40625 -13.921875 L 0.171875 -13.921875 L 0.171875 -17.53125 L 15.125 -17.53125 Z M 15.125 -13.921875 "/></g></g></g><g fill="#116dff" fill-opacity="1"><g transform="translate(294.164203, 302.357822)"><g><path d="M 8.46875 -17.703125 C 11.09375 -17.703125 13.394531 -17.050781 15.375 -15.75 L 13.703125 -12.28125 C 12.785156 -12.8125 11.800781 -13.242188 10.75 -13.578125 C 9.695312 -13.921875 8.8125 -14.09375 8.09375 -14.09375 C 6.8125 -14.09375 6.171875 -13.671875 6.171875 -12.828125 C 6.171875 -12.273438 6.488281 -11.832031 7.125 -11.5 C 7.757812 -11.164062 8.53125 -10.878906 9.4375 -10.640625 C 10.34375 -10.398438 11.25 -10.109375 12.15625 -9.765625 C 13.070312 -9.421875 13.84375 -8.863281 14.46875 -8.09375 C 15.101562 -7.332031 15.421875 -6.367188 15.421875 -5.203125 C 15.421875 -3.515625 14.757812 -2.195312 13.4375 -1.25 C 12.125 -0.3125 10.453125 0.15625 8.421875 0.15625 C 6.972656 0.15625 5.539062 -0.09375 4.125 -0.59375 C 2.707031 -1.09375 1.472656 -1.78125 0.421875 -2.65625 L 2.15625 -6.078125 C 3.03125 -5.304688 4.066406 -4.675781 5.265625 -4.1875 C 6.472656 -3.695312 7.539062 -3.453125 8.46875 -3.453125 C 9.1875 -3.453125 9.742188 -3.578125 10.140625 -3.828125 C 10.546875 -4.085938 10.75 -4.46875 10.75 -4.96875 C 10.75 -5.457031 10.519531 -5.863281 10.0625 -6.1875 C 9.601562 -6.507812 9.03125 -6.75 8.34375 -6.90625 C 7.664062 -7.070312 6.925781 -7.285156 6.125 -7.546875 C 5.320312 -7.816406 4.578125 -8.109375 3.890625 -8.421875 C 3.210938 -8.742188 2.644531 -9.25 2.1875 -9.9375 C 1.726562 -10.625 1.5 -11.453125 1.5 -12.421875 C 1.5 -14.023438 2.132812 -15.304688 3.40625 -16.265625 C 4.6875 -17.222656 6.375 -17.703125 8.46875 -17.703125 Z M 8.46875 -17.703125 "/></g></g></g><g fill="#116dff" fill-opacity="1"><g transform="translate(123.5354, 145.697747)"><g><path d="M 1.1875 -0.03125 L 6.1875 -68.125 L 29.203125 -68.65625 L 37.25 -0.859375 L 24.375 -0.5625 L 23.171875 -11.53125 L 14.9375 -11.34375 L 14.40625 -0.328125 Z M 15.71875 -22.21875 L 21.890625 -22.359375 L 18.09375 -56.859375 L 17.453125 -56.84375 Z M 15.71875 -22.21875 "/></g></g></g><g fill="#116dff" fill-opacity="1"><g transform="translate(163.167017, 144.691086)"><g><path d="M 8.3125 0.015625 L 1.15625 -67.96875 L 14.453125 -67.9375 L 18.171875 -25.046875 L 22.046875 -67.9375 L 34.703125 -67.90625 L 38.265625 -25.015625 L 41.984375 -67.890625 L 55.4375 -67.875 L 47.875 0.078125 L 31.578125 0.0625 L 28.234375 -32.703125 L 24.921875 0.046875 Z M 8.3125 0.015625 "/></g></g></g><g fill="#116dff" fill-opacity="1"><g transform="translate(220.823549, 144.949968)"><g><path d="M 3 0.078125 L 4.6875 -67.875 L 18.296875 -67.546875 L 16.890625 -11.140625 L 30.890625 -10.796875 L 30.609375 0.75 Z M 3 0.078125 "/></g></g></g><g fill="#116dff" fill-opacity="1"><g transform="translate(18.258551, 247.396152)"><g><path d="M 18.828125 -0.796875 C 13.890625 -0.421875 9.8125 -1.671875 6.59375 -4.546875 C 3.382812 -7.421875 1.570312 -11.570312 1.15625 -17 L -1.234375 -48.265625 C -1.753906 -54.992188 -0.804688 -60.171875 1.609375 -63.796875 C 4.035156 -67.429688 8.113281 -69.46875 13.84375 -69.90625 C 18.851562 -70.289062 22.984375 -69.234375 26.234375 -66.734375 C 29.492188 -64.234375 31.320312 -60.40625 31.71875 -55.25 L 32.609375 -43.5625 L 19.125 -42.515625 L 18.359375 -52.53125 C 18.210938 -54.488281 17.875 -55.816406 17.34375 -56.515625 C 16.8125 -57.210938 15.960938 -57.519531 14.796875 -57.4375 C 13.597656 -57.34375 12.804688 -56.851562 12.421875 -55.96875 C 12.035156 -55.09375 11.90625 -53.835938 12.03125 -52.203125 L 14.65625 -18.1875 C 14.789062 -16.394531 15.148438 -15.113281 15.734375 -14.34375 C 16.328125 -13.570312 17.144531 -13.226562 18.1875 -13.3125 C 20.300781 -13.46875 21.226562 -15.253906 20.96875 -18.671875 L 20.015625 -30.90625 L 33.65625 -31.953125 L 34.640625 -19.171875 C 35.515625 -7.796875 30.242188 -1.671875 18.828125 -0.796875 Z M 18.828125 -0.796875 "/></g></g></g><g fill="#116dff" fill-opacity="1"><g transform="translate(57.102435, 244.42232)"><g><path d="M 1.1875 -0.0625 L 3.90625 -68.34375 L 26.90625 -69.65625 L 37.234375 -2.109375 L 24.34375 -1.375 L 22.78125 -12.3125 L 14.546875 -11.84375 L 14.390625 -0.8125 Z M 14.96875 -22.734375 L 21.140625 -23.078125 L 16.171875 -57.453125 L 15.546875 -57.421875 Z M 14.96875 -22.734375 "/></g></g></g><g fill="#116dff" fill-opacity="1"><g transform="translate(96.866045, 242.185604)"><g><path d="M 0.53125 -68.078125 L 21.40625 -68.84375 C 24.726562 -68.96875 27.328125 -68.304688 29.203125 -66.859375 C 31.078125 -65.421875 32.378906 -63.359375 33.109375 -60.671875 C 33.847656 -57.984375 34.289062 -54.523438 34.4375 -50.296875 C 34.582031 -46.453125 34.191406 -43.425781 33.265625 -41.21875 C 32.347656 -39.019531 30.664062 -37.453125 28.21875 -36.515625 C 30.300781 -36.171875 31.828125 -35.195312 32.796875 -33.59375 C 33.773438 -32 34.316406 -29.804688 34.421875 -27.015625 L 35.203125 -1.28125 L 21.921875 -0.796875 L 20.953125 -27.390625 C 20.878906 -29.285156 20.460938 -30.484375 19.703125 -30.984375 C 18.941406 -31.484375 17.582031 -31.695312 15.625 -31.625 L 16.765625 -0.609375 L 3.015625 -0.109375 Z M 18.53125 -43.53125 C 20.425781 -43.601562 21.296875 -45.695312 21.140625 -49.8125 C 21.078125 -51.613281 20.953125 -52.957031 20.765625 -53.84375 C 20.578125 -54.738281 20.265625 -55.347656 19.828125 -55.671875 C 19.390625 -56.003906 18.773438 -56.15625 17.984375 -56.125 L 14.8125 -56 L 15.28125 -43.40625 Z M 18.53125 -43.53125 "/></g></g></g><g fill="#116dff" fill-opacity="1"><g transform="translate(136.041593, 240.768991)"><g><path d="M 1.875 -68.046875 L 19.84375 -68.34375 C 25.28125 -68.4375 29.1875 -66.75 31.5625 -63.28125 C 33.945312 -59.8125 35.195312 -54.703125 35.3125 -47.953125 C 35.425781 -41.191406 34.476562 -36.078125 32.46875 -32.609375 C 30.46875 -29.148438 26.804688 -27.375 21.484375 -27.28125 L 15.9375 -27.203125 L 16.390625 -0.28125 L 3.015625 -0.046875 Z M 16.53125 -39.46875 C 18.164062 -39.5 19.359375 -39.820312 20.109375 -40.4375 C 20.867188 -41.0625 21.351562 -41.941406 21.5625 -43.078125 C 21.78125 -44.222656 21.875 -45.847656 21.84375 -47.953125 C 21.789062 -50.796875 21.4375 -52.84375 20.78125 -54.09375 C 20.132812 -55.351562 18.859375 -55.96875 16.953125 -55.9375 L 15.453125 -55.921875 L 15.734375 -39.46875 Z M 16.53125 -39.46875 "/></g></g></g><g fill="#116dff" fill-opacity="1"><g transform="translate(174.882092, 240.154621)"><g><path d="M 3.015625 0 L 3.140625 -68.015625 L 30.375 -67.96875 L 30.34375 -54.8125 L 16.953125 -54.828125 L 16.9375 -41.609375 L 29.765625 -41.59375 L 29.734375 -28.765625 L 16.90625 -28.78125 L 16.890625 -13.1875 L 31.140625 -13.15625 L 31.109375 0.0625 Z M 3.015625 0 "/></g></g></g><g fill="#116dff" fill-opacity="1"><g transform="translate(208.961643, 240.197459)"><g><path d="M 3.015625 0.0625 L 4.4375 -67.9375 L 18.4375 -67.640625 L 24.015625 -34.96875 L 24.703125 -67.515625 L 37.828125 -67.234375 L 36.40625 0.765625 L 23.125 0.484375 L 17.015625 -33.703125 L 16.3125 0.34375 Z M 3.015625 0.0625 "/></g></g></g><g fill="#116dff" fill-opacity="1"><g transform="translate(249.849068, 241.101667)"><g><path d="M 8.875 0.34375 L 11.046875 -54.546875 L 2.96875 -54.859375 L 3.484375 -67.9375 L 33.21875 -66.765625 L 32.703125 -53.6875 L 24.640625 -54 L 22.46875 0.890625 Z M 8.875 0.34375 "/></g></g></g><g fill="#116dff" fill-opacity="1"><g transform="translate(282.65969, 242.385242)"><g><path d="M 6.953125 -67.734375 L 27.796875 -66.515625 C 31.117188 -66.328125 33.644531 -65.425781 35.375 -63.8125 C 37.101562 -62.207031 38.207031 -60.03125 38.6875 -57.28125 C 39.164062 -54.53125 39.28125 -51.046875 39.03125 -46.828125 C 38.8125 -42.984375 38.132812 -40.007812 37 -37.90625 C 35.875 -35.800781 34.050781 -34.398438 31.53125 -33.703125 C 33.5625 -33.148438 34.988281 -32.03125 35.8125 -30.34375 C 36.644531 -28.664062 36.976562 -26.429688 36.8125 -23.640625 L 35.171875 2.03125 L 21.90625 1.265625 L 23.453125 -25.296875 C 23.554688 -27.191406 23.253906 -28.421875 22.546875 -28.984375 C 21.835938 -29.554688 20.503906 -29.898438 18.546875 -30.015625 L 16.75 0.96875 L 3.015625 0.171875 Z M 22.5625 -41.59375 C 24.457031 -41.476562 25.519531 -43.476562 25.75 -47.59375 C 25.851562 -49.382812 25.851562 -50.734375 25.75 -51.640625 C 25.644531 -52.546875 25.390625 -53.179688 24.984375 -53.546875 C 24.585938 -53.910156 23.992188 -54.117188 23.203125 -54.171875 L 20.03125 -54.359375 L 19.3125 -41.78125 Z M 22.5625 -41.59375 "/></g></g></g><g fill="#116dff" fill-opacity="1"><g transform="translate(321.809598, 244.680896)"><g><path d="M 11.21875 0.875 L 12.953125 -21.46875 L 5.640625 -67.78125 L 19.0625 -66.75 L 21.078125 -43.46875 L 26.640625 -66.15625 L 40.0625 -65.125 L 25.71875 -20.484375 L 23.984375 1.859375 Z M 11.21875 0.875 "/></g></g></g></svg>