<svg xmlns="http://www.w3.org/2000/svg" xmlns:xlink="http://www.w3.org/1999/xlink" width="500" zoomAndPan="magnify" viewBox="0 0 375 374.999991" height="500" preserveAspectRatio="xMidYMid meet" version="1.0"><defs><g/><clipPath id="16707d3e5d"><path d="M 21.609375 68.632812 L 353.109375 68.632812 L 353.109375 175.132812 L 21.609375 175.132812 Z M 21.609375 68.632812 " clip-rule="nonzero"/></clipPath></defs><g fill="#ffffff" fill-opacity="1"><g transform="translate(99.77802, 248.748147)"><g><path d="M 39.65625 0 L 55.03125 0 L 34.6875 -56.25 L 18.65625 -56.25 L -1.6875 0 L 13.78125 0 L 16.875 -9.84375 L 36.5625 -9.84375 Z M 20.53125 -21.46875 L 26.71875 -41.34375 L 33 -21.46875 Z M 20.53125 -21.46875 "/></g></g></g><g fill="#ffffff" fill-opacity="1"><g transform="translate(156.740514, 248.748147)"><g><path d="M 63.9375 -56.25 L 55.21875 -19.21875 L 45.28125 -56.25 L 32.25 -56.25 L 22.3125 -19.21875 L 13.6875 -56.25 L -1.5 -56.25 L 13.125 0 L 29.90625 0 L 38.8125 -35.8125 L 47.625 0 L 64.40625 0 L 79.125 -56.25 Z M 63.9375 -56.25 "/></g></g></g><g fill="#ffffff" fill-opacity="1"><g transform="translate(237.796757, 248.748147)"><g><path d="M 19.5 -12.46875 L 19.5 -56.25 L 5.15625 -56.25 L 5.15625 0 L 37.40625 0 L 37.40625 -12.46875 Z M 19.5 -12.46875 "/></g></g></g><g fill="#ffffff" fill-opacity="1"><g transform="translate(2.266804, 299.018594)"><g><path d="M 10.261719 0.238281 C 13.828125 0.238281 16.949219 -1.800781 18.480469 -4.800781 L 14.519531 -6.808594 C 13.738281 -5.25 12.179688 -4.261719 10.261719 -4.261719 C 7.53125 -4.261719 5.488281 -6.269531 5.488281 -9 C 5.488281 -11.730469 7.53125 -13.738281 10.261719 -13.738281 C 12.179688 -13.738281 13.738281 -12.75 14.519531 -11.191406 L 18.480469 -13.199219 C 16.949219 -16.199219 13.828125 -18.238281 10.261719 -18.238281 C 5.128906 -18.238281 1.019531 -14.101562 1.019531 -9 C 1.019531 -3.898438 5.128906 0.238281 10.261719 0.238281 Z M 10.261719 0.238281 "/></g></g></g><g fill="#ffffff" fill-opacity="1"><g transform="translate(21.500384, 299.018594)"><g><path d="M 12.691406 0 L 17.609375 0 L 11.101562 -18 L 5.96875 -18 L -0.539062 0 L 4.410156 0 L 5.398438 -3.148438 L 11.699219 -3.148438 Z M 6.570312 -6.871094 L 8.550781 -13.230469 L 10.558594 -6.871094 Z M 6.570312 -6.871094 "/></g></g></g><g fill="#ffffff" fill-opacity="1"><g transform="translate(38.633962, 299.018594)"><g><path d="M 11.671875 -7.140625 C 13.738281 -7.859375 15.179688 -9.871094 15.179688 -12.328125 C 15.179688 -15.449219 12.871094 -18 9.660156 -18 L 1.648438 -18 L 1.648438 0 L 6.238281 0 L 6.238281 -6.601562 L 7.289062 -6.601562 L 11.488281 0 L 16.648438 0 Z M 8.910156 -10.289062 L 6.238281 -10.289062 L 6.238281 -14.011719 L 8.910156 -14.011719 C 9.988281 -14.011719 10.769531 -13.230469 10.769531 -12.148438 C 10.769531 -11.070312 9.988281 -10.289062 8.910156 -10.289062 Z M 8.910156 -10.289062 "/></g></g></g><g fill="#ffffff" fill-opacity="1"><g transform="translate(55.047547, 299.018594)"><g><path d="M 9.660156 -18 L 1.648438 -18 L 1.648438 0 L 6.238281 0 L 6.238281 -7.050781 L 9.660156 -7.050781 C 12.78125 -7.050781 15.179688 -9.328125 15.179688 -12.449219 C 15.179688 -15.511719 12.78125 -18 9.660156 -18 Z M 8.910156 -10.769531 L 6.238281 -10.769531 L 6.238281 -14.011719 L 8.910156 -14.011719 C 9.988281 -14.011719 10.769531 -13.351562 10.769531 -12.421875 C 10.769531 -11.460938 9.988281 -10.769531 8.910156 -10.769531 Z M 8.910156 -10.769531 "/></g></g></g><g fill="#ffffff" fill-opacity="1"><g transform="translate(70.231132, 299.018594)"><g><path d="M 12.960938 -14.011719 L 12.960938 -18 L 1.800781 -18 L 1.800781 0 L 12.960938 0 L 12.960938 -3.988281 L 6.390625 -3.988281 L 6.390625 -7.019531 L 11.941406 -7.019531 L 11.941406 -10.980469 L 6.390625 -10.980469 L 6.390625 -14.011719 Z M 12.960938 -14.011719 "/></g></g></g><g fill="#ffffff" fill-opacity="1"><g transform="translate(84.244719, 299.018594)"><g><path d="M 14.578125 -18 L 14.578125 -6.988281 L 6.449219 -18 L 1.648438 -18 L 1.648438 0 L 6.238281 0 L 6.238281 -11.039062 L 14.339844 0 L 19.171875 0 L 19.171875 -18 Z M 14.578125 -18 "/></g></g></g><g fill="#ffffff" fill-opacity="1"><g transform="translate(105.098302, 299.018594)"><g><path d="M 13.109375 -18 L -0.269531 -18 L -0.269531 -14.011719 L 4.140625 -14.011719 L 4.140625 0 L 8.699219 0 L 8.699219 -14.011719 L 13.109375 -14.011719 Z M 13.109375 -18 "/></g></g></g><g fill="#ffffff" fill-opacity="1"><g transform="translate(117.971886, 299.018594)"><g><path d="M 11.671875 -7.140625 C 13.738281 -7.859375 15.179688 -9.871094 15.179688 -12.328125 C 15.179688 -15.449219 12.871094 -18 9.660156 -18 L 1.648438 -18 L 1.648438 0 L 6.238281 0 L 6.238281 -6.601562 L 7.289062 -6.601562 L 11.488281 0 L 16.648438 0 Z M 8.910156 -10.289062 L 6.238281 -10.289062 L 6.238281 -14.011719 L 8.910156 -14.011719 C 9.988281 -14.011719 10.769531 -13.230469 10.769531 -12.148438 C 10.769531 -11.070312 9.988281 -10.289062 8.910156 -10.289062 Z M 8.910156 -10.289062 "/></g></g></g><g fill="#ffffff" fill-opacity="1"><g transform="translate(134.38547, 299.018594)"><g><path d="M 16.710938 -18 L 11.671875 -18 L 8.128906 -12.359375 L 4.589844 -18 L -0.511719 -18 L 5.820312 -8.460938 L 5.820312 0 L 10.410156 0 L 10.410156 -8.488281 Z M 16.710938 -18 "/></g></g></g><g fill="#ffffff" fill-opacity="1"><g transform="translate(150.619051, 299.018594)"><g><path d="M 17.25 -10.589844 L 15.210938 -10.589844 L 15.210938 -13.019531 L 10.769531 -13.019531 L 10.769531 -10.589844 L 8.699219 -10.589844 C 7.5 -10.589844 6.511719 -11.488281 6.511719 -12.570312 C 6.511719 -13.46875 7.261719 -14.101562 7.980469 -14.128906 L 10.769531 -14.128906 L 10.769531 -17.96875 L 7.109375 -17.96875 C 4.199219 -18.238281 2.070312 -15.808594 2.070312 -12.898438 C 2.070312 -11.308594 2.699219 -9.929688 3.75 -8.878906 C 2.761719 -7.949219 2.160156 -6.691406 2.160156 -5.28125 C 2.160156 -2.191406 5.011719 0.03125 8.640625 0.03125 C 12.480469 0.03125 15.210938 -2.460938 15.210938 -5.878906 L 15.210938 -6.988281 L 17.25 -6.988281 Z M 8.578125 -3.839844 C 7.410156 -3.839844 6.328125 -4.410156 6.328125 -5.339844 C 6.328125 -6.148438 7.171875 -6.988281 8.191406 -6.988281 L 10.769531 -6.988281 L 10.769531 -5.878906 C 10.769531 -4.679688 9.960938 -3.839844 8.578125 -3.839844 Z M 8.578125 -3.839844 "/></g></g></g><g fill="#ffffff" fill-opacity="1"><g transform="translate(168.412632, 299.018594)"><g/></g></g><g fill="#ffffff" fill-opacity="1"><g transform="translate(175.646225, 299.018594)"><g><path d="M 1.648438 0 L 7.890625 0 C 12.839844 0 16.890625 -4.019531 16.890625 -9 C 16.890625 -13.980469 12.839844 -18 7.890625 -18 L 1.648438 -18 Z M 6.238281 -3.988281 L 6.238281 -14.011719 L 7.890625 -14.011719 C 10.378906 -14.011719 12.328125 -11.820312 12.328125 -9 C 12.328125 -6.179688 10.378906 -3.988281 7.890625 -3.988281 Z M 6.238281 -3.988281 "/></g></g></g><g fill="#ffffff" fill-opacity="1"><g transform="translate(193.589804, 299.018594)"><g><path d="M 12.960938 -14.011719 L 12.960938 -18 L 1.800781 -18 L 1.800781 0 L 12.960938 0 L 12.960938 -3.988281 L 6.390625 -3.988281 L 6.390625 -7.019531 L 11.941406 -7.019531 L 11.941406 -10.980469 L 6.390625 -10.980469 L 6.390625 -14.011719 Z M 12.960938 -14.011719 "/></g></g></g><g fill="#ffffff" fill-opacity="1"><g transform="translate(207.603391, 299.018594)"><g><path d="M 12.480469 -18 L 8.550781 -6.03125 L 4.621094 -18 L -0.539062 -18 L 5.96875 0 L 11.101562 0 L 17.609375 -18 Z M 12.480469 -18 "/></g></g></g><g fill="#ffffff" fill-opacity="1"><g transform="translate(224.736958, 299.018594)"><g><path d="M 12.960938 -14.011719 L 12.960938 -18 L 1.800781 -18 L 1.800781 0 L 12.960938 0 L 12.960938 -3.988281 L 6.390625 -3.988281 L 6.390625 -7.019531 L 11.941406 -7.019531 L 11.941406 -10.980469 L 6.390625 -10.980469 L 6.390625 -14.011719 Z M 12.960938 -14.011719 "/></g></g></g><g fill="#ffffff" fill-opacity="1"><g transform="translate(238.750545, 299.018594)"><g><path d="M 6.238281 -3.988281 L 6.238281 -18 L 1.648438 -18 L 1.648438 0 L 11.96875 0 L 11.96875 -3.988281 Z M 6.238281 -3.988281 "/></g></g></g><g fill="#ffffff" fill-opacity="1"><g transform="translate(250.754137, 299.018594)"><g><path d="M 10.261719 0.238281 C 15.359375 0.238281 19.5 -3.898438 19.5 -9 C 19.5 -14.101562 15.359375 -18.238281 10.261719 -18.238281 C 5.128906 -18.238281 1.019531 -14.101562 1.019531 -9 C 1.019531 -3.898438 5.128906 0.238281 10.261719 0.238281 Z M 10.261719 -4.261719 C 7.53125 -4.261719 5.488281 -6.269531 5.488281 -9 C 5.488281 -11.730469 7.53125 -13.738281 10.261719 -13.738281 C 12.960938 -13.738281 15 -11.730469 15 -9 C 15 -6.269531 12.960938 -4.261719 10.261719 -4.261719 Z M 10.261719 -4.261719 "/></g></g></g><g fill="#ffffff" fill-opacity="1"><g transform="translate(271.277719, 299.018594)"><g><path d="M 9.660156 -18 L 1.648438 -18 L 1.648438 0 L 6.238281 0 L 6.238281 -7.050781 L 9.660156 -7.050781 C 12.78125 -7.050781 15.179688 -9.328125 15.179688 -12.449219 C 15.179688 -15.511719 12.78125 -18 9.660156 -18 Z M 8.910156 -10.769531 L 6.238281 -10.769531 L 6.238281 -14.011719 L 8.910156 -14.011719 C 9.988281 -14.011719 10.769531 -13.351562 10.769531 -12.421875 C 10.769531 -11.460938 9.988281 -10.769531 8.910156 -10.769531 Z M 8.910156 -10.769531 "/></g></g></g><g fill="#ffffff" fill-opacity="1"><g transform="translate(286.461304, 299.018594)"><g><path d="M 17.28125 -18 L 11.941406 -6.539062 L 6.628906 -18 L 1.648438 -18 L 1.648438 0 L 6.238281 0 L 6.238281 -9.691406 L 10.710938 0 L 13.171875 0 L 17.640625 -9.628906 L 17.640625 0 L 22.230469 0 L 22.230469 -18 Z M 17.28125 -18 "/></g></g></g><g fill="#ffffff" fill-opacity="1"><g transform="translate(310.374877, 299.018594)"><g><path d="M 12.960938 -14.011719 L 12.960938 -18 L 1.800781 -18 L 1.800781 0 L 12.960938 0 L 12.960938 -3.988281 L 6.390625 -3.988281 L 6.390625 -7.019531 L 11.941406 -7.019531 L 11.941406 -10.980469 L 6.390625 -10.980469 L 6.390625 -14.011719 Z M 12.960938 -14.011719 "/></g></g></g><g fill="#ffffff" fill-opacity="1"><g transform="translate(324.388464, 299.018594)"><g><path d="M 14.578125 -18 L 14.578125 -6.988281 L 6.449219 -18 L 1.648438 -18 L 1.648438 0 L 6.238281 0 L 6.238281 -11.039062 L 14.339844 0 L 19.171875 0 L 19.171875 -18 Z M 14.578125 -18 "/></g></g></g><g fill="#ffffff" fill-opacity="1"><g transform="translate(345.242047, 299.018594)"><g><path d="M 13.109375 -18 L -0.269531 -18 L -0.269531 -14.011719 L 4.140625 -14.011719 L 4.140625 0 L 8.699219 0 L 8.699219 -14.011719 L 13.109375 -14.011719 Z M 13.109375 -18 "/></g></g></g><g fill="#ffffff" fill-opacity="1"><g transform="translate(358.115642, 299.018594)"><g><path d="M 7.53125 0.238281 C 10.980469 0.238281 13.949219 -1.769531 13.949219 -5.21875 C 13.949219 -12.058594 5.789062 -10.351562 5.789062 -13.078125 C 5.789062 -13.859375 6.390625 -14.21875 7.109375 -14.21875 C 8.011719 -14.21875 9 -13.679688 9.960938 -12.660156 L 12.960938 -15.570312 C 11.550781 -17.21875 9.421875 -18.238281 7.171875 -18.238281 C 4.320312 -18.238281 1.171875 -16.589844 1.171875 -12.75 C 1.171875 -6.511719 9.359375 -8.011719 9.359375 -5.28125 C 9.359375 -4.558594 8.761719 -4.050781 7.589844 -4.050781 C 6.03125 -4.050781 4.769531 -4.890625 4.140625 -6.238281 L 0.390625 -3.898438 C 1.589844 -1.621094 4.230469 0.238281 7.53125 0.238281 Z M 7.53125 0.238281 "/></g></g></g><g clip-path="url(#16707d3e5d)"><path fill="#ffffff" d="M 129.609375 107.496094 L 122.789062 108.503906 L 122.789062 114.351562 L 129.609375 113.511719 Z M 115.722656 121.679688 L 121.65625 121.363281 L 121.65625 115.550781 L 115.722656 116.277344 Z M 121.65625 108.667969 L 115.722656 109.546875 L 115.722656 115.214844 L 121.65625 114.484375 Z M 122.789062 121.300781 L 129.609375 120.9375 L 129.609375 114.578125 L 122.789062 115.410156 Z M 216 115.355469 L 223.417969 114.957031 L 223.417969 107.691406 L 216 108.601562 Z M 224.835938 114.882812 L 233.359375 114.429688 L 233.359375 106.480469 L 224.835938 107.523438 Z M 233.359375 97.625 L 224.835938 98.882812 L 224.835938 106.191406 L 233.359375 105.148438 Z M 223.417969 99.09375 L 216 100.191406 L 216 107.273438 L 223.417969 106.367188 Z M 213.375 163.328125 C 219.570312 162.617188 225.78125 162.003906 231.992188 161.476562 L 231.992188 129.652344 L 213.375 132.011719 Z M 132.265625 159.570312 L 132.316406 159.660156 L 132.375 159.625 L 132.324219 159.535156 L 132.417969 159.488281 L 132.386719 159.429688 L 132.292969 159.480469 L 132.246094 159.390625 L 132.1875 159.417969 L 132.238281 159.507812 L 132.144531 159.558594 L 132.175781 159.613281 Z M 64.847656 159.480469 L 63.375 154.847656 L 63.058594 154.949219 L 63.496094 156.402344 L 62.976562 154.976562 L 62.542969 155.113281 L 63.441406 158.070312 L 62.402344 155.15625 L 62.140625 155.238281 L 62.707031 157.128906 L 62.035156 155.273438 L 60.878906 155.640625 L 61.277344 156.953125 L 60.808594 155.660156 L 60.53125 155.75 L 61.101562 157.636719 L 60.429688 155.78125 L 59.0625 156.21875 L 59.585938 157.960938 L 58.964844 156.246094 L 58.664062 156.339844 L 59.234375 158.230469 L 58.558594 156.375 L 57.492188 156.710938 L 58.097656 158.730469 L 57.378906 156.75 L 56.769531 156.941406 L 57.230469 158.484375 L 56.679688 156.96875 L 56.15625 157.136719 L 57.628906 161.769531 Z M 81.074219 145.625 L 79.070312 140.648438 L 62.613281 147.28125 L 64.617188 152.253906 Z M 81.148438 143.125 L 82.472656 146.417969 L 77.246094 154.453125 C 77.167969 154.570312 77.15625 154.71875 77.207031 154.847656 L 77.695312 156.050781 L 78.488281 155.730469 L 78.089844 154.734375 L 83.320312 146.699219 C 83.394531 146.582031 83.410156 146.433594 83.359375 146.304688 L 81.785156 142.40625 C 81.699219 142.1875 81.445312 142.082031 81.226562 142.171875 L 80.097656 142.625 L 80.417969 143.417969 Z M 58.699219 165.144531 L 65.917969 162.847656 L 64.902344 159.652344 L 57.683594 161.945312 Z M 177.195312 138.367188 C 181.0625 137.175781 184.320312 142.511719 184.320312 142.511719 L 185.164062 141.636719 C 185.164062 141.636719 178.378906 130.816406 173.164062 132.140625 C 168.675781 133.285156 166.246094 134.273438 166.246094 134.273438 L 165.316406 134.558594 C 164.949219 135.667969 163.988281 136.625 162.671875 137.03125 C 161.355469 137.4375 160.019531 137.1875 159.09375 136.480469 L 155.921875 137.457031 L 158.304688 145.1875 L 161.160156 144.304688 C 161.160156 144.304688 162.050781 143.160156 164.3125 142.347656 C 166.300781 141.632812 168.96875 142.695312 169.507812 144.449219 C 169.523438 144.496094 169.535156 144.539062 169.546875 144.585938 L 175.492188 142.753906 C 175.277344 141.859375 174.820312 139.097656 177.195312 138.367188 Z M 200.472656 151.046875 C 200.332031 151.058594 200.199219 151.089844 200.074219 151.136719 L 198.875 151.394531 C 198.617188 151.199219 198.265625 151.078125 197.878906 151.078125 C 197.492188 151.078125 197.144531 151.199219 196.890625 151.394531 L 195.6875 151.136719 C 195.5625 151.089844 195.429688 151.058594 195.285156 151.046875 L 195.265625 151.042969 L 195.265625 151.046875 C 195.234375 151.046875 195.207031 151.042969 195.175781 151.042969 C 194.460938 151.042969 193.886719 151.546875 193.886719 152.164062 C 193.886719 152.785156 194.464844 153.285156 195.175781 153.285156 C 195.308594 153.285156 195.4375 153.269531 195.558594 153.234375 L 196.957031 153.050781 C 197.035156 153.101562 197.121094 153.148438 197.207031 153.1875 L 197.207031 154.488281 L 196.679688 154.488281 C 196.570312 154.488281 196.484375 154.574219 196.484375 154.679688 C 196.484375 154.789062 196.570312 154.875 196.679688 154.875 L 199.082031 154.875 C 199.191406 154.875 199.277344 154.789062 199.277344 154.679688 C 199.277344 154.574219 199.1875 154.488281 199.082031 154.488281 L 198.554688 154.488281 L 198.554688 153.1875 C 198.644531 153.144531 198.726562 153.101562 198.804688 153.050781 L 200.203125 153.234375 C 200.324219 153.269531 200.449219 153.285156 200.585938 153.285156 C 201.296875 153.285156 201.875 152.785156 201.875 152.164062 C 201.875 151.546875 201.296875 151.042969 200.585938 151.042969 C 200.554688 151.042969 200.523438 151.046875 200.496094 151.046875 L 200.496094 151.042969 Z M 196.105469 155.03125 C 195.917969 155.03125 195.765625 155.183594 195.765625 155.375 C 195.765625 155.5625 195.917969 155.714844 196.105469 155.714844 L 199.585938 155.714844 C 199.777344 155.714844 199.929688 155.5625 199.929688 155.375 C 199.929688 155.183594 199.777344 155.03125 199.585938 155.03125 Z M 108.285156 160.863281 C 108.191406 161.5 107.851562 161.917969 108.261719 162.597656 C 109.046875 163.898438 109.660156 163.65625 111.175781 163.6875 C 111.445312 163.695312 111.59375 164.015625 111.777344 164.210938 C 111.980469 164.476562 112.746094 164.054688 112.617188 163.816406 C 112.242188 163.355469 111.792969 162.949219 111.242188 162.898438 C 110.679688 162.847656 109.953125 163.179688 109.488281 162.859375 C 108.71875 162.320312 109.121094 161.292969 108.285156 160.863281 Z M 353.351562 175.046875 C 349.070312 174.566406 344.445312 174.101562 339.507812 173.660156 L 337.324219 125.753906 L 305.367188 92.707031 L 294.363281 89.476562 L 294.363281 82.257812 L 284.871094 76.390625 L 279.359375 77.871094 L 279.359375 85.070312 L 223.367188 68.632812 L 207.0625 89.566406 L 174.464844 93.695312 L 146.925781 118.824219 L 168.503906 93.917969 L 128.34375 77.3125 L 94.726562 128.167969 L 128.667969 86.398438 L 143.640625 125.347656 L 144.378906 141.371094 C 144.476562 140.472656 145.328125 131.648438 145.769531 127.039062 L 191.203125 124.320312 L 192.304688 147.96875 C 192.480469 146.394531 194.191406 128.710938 194.695312 123.515625 L 225.023438 79.304688 L 257.515625 123.902344 L 257.515625 169.253906 C 242.3125 168.8125 226.25 168.515625 209.566406 168.375 L 209.566406 161.414062 C 209.566406 159.601562 208.097656 158.132812 206.285156 158.132812 L 204.992188 158.132812 L 204.992188 157.324219 L 203.609375 157.324219 L 203.230469 157.878906 L 203.230469 157.90625 L 203.203125 157.90625 L 203.203125 158.132812 L 200.328125 158.132812 C 200.164062 157.835938 199.9375 157.574219 199.664062 157.359375 L 199.664062 155.902344 L 196.152344 155.902344 L 196.152344 157.359375 C 195.878906 157.574219 195.652344 157.835938 195.488281 158.132812 L 193.84375 158.132812 C 192.03125 158.132812 190.558594 159.605469 190.558594 161.414062 L 190.558594 162.859375 L 190.46875 162.859375 C 190.265625 162.859375 190.101562 163.023438 190.101562 163.226562 C 190.101562 163.429688 190.265625 163.59375 190.46875 163.59375 L 192.78125 163.59375 C 192.984375 163.59375 193.152344 163.429688 193.152344 163.226562 C 193.152344 163.027344 192.988281 162.863281 192.792969 162.859375 L 192.792969 161.414062 C 192.792969 160.835938 193.265625 160.367188 193.84375 160.367188 L 195.5 160.367188 C 195.949219 161.164062 196.859375 161.710938 197.90625 161.710938 C 198.957031 161.710938 199.867188 161.164062 200.316406 160.367188 L 203.199219 160.367188 L 203.199219 160.621094 L 203.609375 161.242188 L 203.628906 161.203125 L 204.988281 161.203125 L 204.988281 160.367188 L 206.285156 160.367188 C 206.863281 160.367188 207.332031 160.839844 207.332031 161.417969 L 207.332031 168.359375 C 200.808594 168.3125 194.195312 168.285156 187.5 168.285156 C 186.449219 168.285156 185.402344 168.285156 184.351562 168.285156 L 175.605469 143.160156 L 169.671875 144.988281 L 169.816406 145.464844 L 175.941406 168.308594 C 170.273438 168.335938 164.667969 168.375 159.140625 168.4375 C 159.027344 167.503906 158.753906 166.476562 158.320312 165.601562 C 158.117188 165.191406 157.488281 164.980469 157.109375 164.722656 C 157.023438 164.535156 156.96875 164.363281 156.96875 164.21875 C 156.949219 161.527344 156.238281 159.210938 155.542969 157.058594 C 155.246094 156.144531 156.078125 155.769531 157.261719 155.738281 C 158.652344 155.699219 159.808594 155.386719 160.902344 154.457031 C 161.179688 154.265625 161.246094 154.257812 161.097656 153.953125 C 161.234375 153.898438 161.378906 153.589844 161.351562 153.445312 C 162.199219 152.925781 161.699219 150.40625 161.292969 149.996094 C 161.195312 149.898438 161.132812 150.015625 161.117188 149.882812 C 161.097656 149.707031 161.023438 149.566406 160.855469 149.457031 C 161.109375 149.378906 160.820312 149.035156 160.554688 148.988281 C 159.210938 148.761719 157.835938 148.792969 156.480469 148.707031 C 156.113281 148.613281 155.402344 148.316406 155.066406 148.488281 C 154.578125 148.738281 154.109375 148.90625 153.648438 149.015625 C 153.648438 149.015625 153.648438 149.015625 153.648438 149.011719 C 153.640625 148.9375 153.277344 148.914062 152.796875 148.941406 C 152.753906 148.878906 152.699219 148.824219 152.605469 148.832031 L 152.320312 148.859375 C 152.269531 148.863281 152.25 148.9375 152.226562 148.996094 C 151.71875 149.066406 151.347656 149.167969 151.351562 149.242188 C 151.351562 149.246094 151.351562 149.246094 151.351562 149.246094 C 150.898438 149.253906 150.429688 149.257812 149.933594 149.277344 C 148.941406 148.886719 148.605469 149.222656 147.878906 149.621094 L 147.878906 149.617188 L 146.839844 149.867188 L 145.746094 150.109375 C 145.761719 150.628906 145.785156 151.152344 145.8125 151.679688 L 145.710938 151.683594 C 145.671875 151.261719 145.617188 150.835938 145.542969 150.414062 L 142.875 150.5625 C 142.519531 150.582031 142.167969 150.671875 141.839844 150.820312 L 140.335938 151.480469 L 140.371094 151.910156 L 140.132812 151.945312 C 140.128906 152.0625 140.125 152.179688 140.125 152.292969 L 139.171875 152.550781 L 139.191406 152.808594 L 137.15625 152.9375 L 136.910156 153.050781 L 137.167969 153.128906 L 139.210938 152.996094 L 139.222656 153.1875 L 140.210938 153.46875 C 140.222656 153.523438 140.230469 153.578125 140.238281 153.636719 L 140.503906 153.65625 L 140.535156 154.058594 L 142.066406 154.558594 C 142.414062 154.671875 142.796875 154.71875 143.152344 154.699219 L 145.835938 154.550781 C 145.828125 154.101562 145.824219 153.65625 145.808594 153.214844 L 145.90625 153.207031 C 145.945312 153.71875 145.988281 154.234375 146.039062 154.75 L 147.234375 154.851562 L 148.222656 155.015625 L 148.21875 154.953125 C 148.726562 155.066406 149.039062 155.105469 149.4375 155.488281 C 149.910156 155.496094 150.253906 155.496094 150.492188 155.550781 C 150.578125 155.570312 150.652344 155.609375 150.714844 155.667969 L 149.546875 155.621094 C 149.359375 155.613281 149.320312 155.648438 149.386719 155.828125 C 149.667969 156.554688 149.667969 157.195312 149.414062 157.816406 C 149.371094 157.917969 149.464844 157.972656 149.570312 157.996094 L 150.550781 158.023438 C 150.351562 158.09375 150.097656 158.203125 150.265625 158.363281 C 150.445312 158.558594 151.308594 158.402344 151.363281 158.871094 C 151.566406 160.589844 152.777344 162.089844 152.890625 163.789062 C 152.859375 164.320312 152.695312 164.675781 152.4375 164.949219 C 152.226562 165.171875 152.011719 165.296875 151.734375 165.335938 L 151.746094 165.660156 C 150.855469 165.839844 149.972656 166.140625 149.351562 166.679688 C 149.1875 166.824219 149.226562 167.101562 149.179688 167.320312 L 148.1875 168.582031 C 144.699219 168.636719 141.242188 168.695312 137.824219 168.765625 L 132.449219 158.671875 L 128.726562 161.71875 L 126.53125 169.015625 C 126.394531 169.015625 126.261719 169.023438 126.125 169.023438 L 128.394531 161.5 L 132.269531 158.328125 L 115.050781 125.996094 L 111.996094 127.621094 L 111.6875 127.960938 L 112.1875 128.070312 L 112.199219 128.105469 L 111.851562 128.480469 L 112.347656 128.59375 L 112.359375 128.625 L 112.015625 129.003906 L 112.511719 129.113281 L 112.523438 129.148438 L 112.179688 129.527344 L 112.679688 129.636719 L 112.6875 129.671875 L 112.34375 130.050781 L 112.839844 130.160156 L 112.851562 130.195312 L 112.507812 130.574219 L 113.007812 130.6875 L 113.015625 130.71875 L 112.671875 131.097656 L 113.167969 131.207031 L 113.179688 131.242188 L 112.835938 131.621094 L 113.332031 131.730469 L 113.34375 131.765625 L 113 132.140625 L 113.496094 132.25 L 113.511719 132.285156 L 113.167969 132.664062 L 113.664062 132.773438 L 113.675781 132.8125 L 113.332031 133.1875 L 113.828125 133.296875 L 113.835938 133.335938 L 113.496094 133.710938 L 113.988281 133.820312 L 114 133.859375 L 113.660156 134.234375 L 114.152344 134.34375 L 114.167969 134.382812 L 113.824219 134.757812 L 114.320312 134.867188 L 114.332031 134.90625 L 113.988281 135.277344 L 114.484375 135.390625 L 114.492188 135.429688 L 114.152344 135.800781 L 114.644531 135.910156 L 114.65625 135.953125 L 114.316406 136.320312 L 114.808594 136.429688 L 114.820312 136.472656 L 114.484375 136.84375 L 114.972656 136.953125 L 114.984375 136.996094 L 114.644531 137.367188 L 115.132812 137.476562 L 115.148438 137.519531 L 114.808594 137.886719 L 115.300781 137.996094 L 115.3125 138.039062 L 114.976562 138.410156 L 115.464844 138.519531 L 115.476562 138.5625 L 115.140625 138.933594 L 115.628906 139.039062 L 115.640625 139.085938 L 115.300781 139.453125 L 115.789062 139.5625 L 115.808594 139.605469 L 115.46875 139.972656 L 115.960938 140.082031 L 115.96875 140.128906 L 115.632812 140.5 L 116.121094 140.605469 L 116.136719 140.652344 L 115.800781 141.019531 L 116.285156 141.128906 L 116.300781 141.171875 L 115.964844 141.542969 L 116.453125 141.648438 L 116.46875 141.699219 L 116.132812 142.066406 L 116.617188 142.171875 L 116.632812 142.21875 L 116.296875 142.585938 L 116.78125 142.695312 L 116.796875 142.742188 L 116.457031 143.109375 L 116.945312 143.214844 L 116.960938 143.265625 L 116.625 143.632812 L 117.105469 143.738281 L 117.125 143.789062 L 116.789062 144.152344 L 117.273438 144.257812 L 117.289062 144.308594 L 116.953125 144.671875 L 117.4375 144.78125 L 117.453125 144.828125 L 117.117188 145.195312 L 117.597656 145.304688 L 117.613281 145.355469 L 117.28125 145.71875 L 117.761719 145.824219 L 117.777344 145.878906 L 117.445312 146.242188 L 117.921875 146.347656 L 117.941406 146.402344 L 117.605469 146.765625 L 118.085938 146.871094 L 118.101562 146.925781 L 117.769531 147.289062 L 118.25 147.394531 L 118.269531 147.449219 L 117.9375 147.8125 L 118.414062 147.921875 L 118.429688 147.972656 L 118.097656 148.335938 L 118.574219 148.441406 L 118.59375 148.496094 L 118.261719 148.855469 L 118.738281 148.960938 L 118.753906 149.015625 L 118.425781 149.378906 L 118.902344 149.484375 L 118.921875 149.542969 L 118.59375 149.902344 L 119.070312 150.007812 L 119.085938 150.066406 L 118.757812 150.421875 L 119.234375 150.53125 L 119.253906 150.585938 L 118.921875 150.945312 L 119.398438 151.050781 L 119.414062 151.109375 L 119.085938 151.46875 L 119.558594 151.574219 L 119.574219 151.632812 L 119.25 151.992188 L 119.71875 152.097656 L 119.742188 152.160156 L 119.410156 152.515625 L 119.882812 152.617188 L 119.902344 152.679688 L 119.574219 153.035156 L 120.046875 153.140625 L 120.066406 153.203125 L 119.738281 153.5625 L 120.210938 153.667969 L 120.230469 153.730469 L 119.902344 154.085938 L 120.371094 154.191406 L 120.394531 154.253906 L 120.066406 154.609375 L 120.539062 154.710938 L 120.554688 154.773438 L 120.230469 155.132812 L 120.703125 155.238281 L 120.71875 155.300781 L 120.394531 155.65625 L 120.863281 155.757812 L 120.882812 155.820312 L 120.558594 156.175781 L 121.027344 156.28125 L 121.050781 156.347656 L 120.726562 156.699219 L 121.195312 156.804688 L 121.214844 156.867188 L 120.890625 157.222656 L 121.359375 157.328125 L 121.378906 157.394531 L 121.054688 157.746094 L 121.523438 157.851562 L 121.542969 157.914062 L 121.21875 158.265625 L 121.6875 158.371094 L 121.707031 158.4375 L 121.382812 158.789062 L 121.847656 158.894531 L 121.871094 158.960938 L 121.550781 159.316406 L 122.015625 159.417969 L 122.035156 159.484375 L 121.714844 159.835938 L 122.179688 159.9375 L 122.199219 160.007812 L 121.878906 160.359375 L 122.339844 160.460938 L 122.363281 160.527344 L 122.042969 160.882812 L 122.503906 160.984375 L 122.527344 161.054688 L 122.207031 161.402344 L 122.667969 161.503906 L 122.691406 161.574219 L 122.371094 161.925781 L 122.832031 162.027344 L 122.855469 162.097656 L 122.535156 162.449219 L 123 162.550781 L 123.019531 162.621094 L 122.699219 162.96875 L 123.164062 163.070312 L 123.1875 163.140625 L 122.867188 163.492188 L 123.328125 163.59375 L 123.351562 163.667969 L 123.03125 164.015625 L 123.492188 164.117188 L 123.515625 164.1875 L 123.195312 164.535156 L 123.65625 164.636719 L 123.679688 164.710938 L 123.359375 165.058594 L 123.820312 165.160156 L 123.84375 165.234375 L 123.523438 165.582031 L 123.984375 165.683594 L 124.007812 165.757812 L 123.691406 166.105469 L 124.148438 166.203125 L 124.171875 166.277344 L 123.855469 166.625 L 124.3125 166.726562 L 124.335938 166.800781 L 124.019531 167.148438 L 124.476562 167.246094 L 124.496094 167.324219 L 124.183594 167.671875 L 124.636719 167.773438 L 124.664062 167.847656 L 124.347656 168.191406 L 124.804688 168.292969 L 124.828125 168.371094 L 124.511719 168.71875 L 124.96875 168.816406 L 124.992188 168.894531 L 124.835938 169.066406 C 121.972656 169.140625 119.140625 169.21875 116.335938 169.300781 C 115.628906 167.828125 114.847656 166.4375 113.949219 165.003906 C 113.929688 164.925781 113.84375 164.882812 113.742188 164.867188 L 113.039062 163.65625 C 112.988281 163.546875 112.816406 163.527344 112.601562 163.570312 C 112.648438 163.621094 112.691406 163.675781 112.730469 163.726562 C 112.738281 163.734375 112.742188 163.742188 112.746094 163.75 C 112.824219 163.886719 112.796875 164.109375 112.488281 164.3125 C 112.335938 164.410156 112.160156 164.476562 111.996094 164.484375 C 111.84375 164.492188 111.703125 164.445312 111.613281 164.332031 C 111.601562 164.316406 111.527344 164.222656 111.492188 164.183594 C 111.449219 164.246094 111.433594 164.3125 111.441406 164.375 C 111.441406 164.394531 111.449219 164.414062 111.457031 164.4375 C 111.464844 164.449219 112.125 165.796875 112.125 165.796875 C 112.113281 165.851562 112.113281 165.90625 112.128906 165.960938 C 112.128906 165.964844 112.128906 165.96875 112.132812 165.972656 C 112.136719 165.984375 112.140625 165.992188 112.140625 166 C 112.140625 166.003906 112.144531 166.007812 112.144531 166.007812 C 112.601562 167.179688 113.015625 168.300781 113.503906 169.386719 C 108.886719 169.527344 104.351562 169.683594 99.902344 169.851562 C 98.378906 166.898438 95.410156 161.152344 95.074219 160.507812 C 94.625 159.636719 96.035156 158.351562 94.992188 156.332031 C 94.507812 155.386719 93.332031 154.34375 92.34375 154.273438 L 93.375 156.269531 C 93.75 157.003906 93.566406 157.683594 92.660156 158.152344 C 91.753906 158.621094 91.089844 158.378906 90.710938 157.644531 L 89.960938 156.191406 C 89.445312 157.035156 89.339844 158.058594 89.824219 159 C 90.867188 161.023438 92.730469 160.613281 93.179688 161.484375 C 93.480469 162.070312 95.953125 166.855469 97.546875 169.941406 C 93.421875 170.101562 89.378906 170.273438 85.425781 170.453125 L 79.886719 156.703125 L 80.289062 155.246094 L 75.726562 157.082031 L 77.027344 157.855469 L 82.164062 170.605469 C 76.757812 170.863281 71.523438 171.136719 66.472656 171.4375 C 65.683594 170.171875 64.773438 168.625 64.511719 167.804688 C 63.890625 165.847656 66.007812 163.238281 66.007812 163.238281 L 65.945312 163.046875 L 58.734375 165.339844 L 58.792969 165.53125 C 58.792969 165.53125 62.027344 166.441406 62.648438 168.398438 C 62.859375 169.066406 63 170.375 63.09375 171.640625 C 59.363281 171.867188 55.734375 172.105469 52.222656 172.355469 L 51.039062 170.5 C 51.039062 170.5 49.980469 169.746094 49.433594 168.902344 C 49.238281 168.601562 49.28125 167.699219 49.28125 167.699219 L 48.785156 166.910156 L 48.148438 167.292969 L 44.785156 161.683594 L 44.804688 161.253906 L 44.015625 159.808594 L 43.507812 160.109375 L 43.46875 160.132812 L 42.964844 160.433594 L 43.867188 161.8125 L 44.261719 162 L 47.625 167.605469 L 46.988281 167.988281 L 47.449219 168.796875 C 47.449219 168.796875 48.265625 169.183594 48.441406 169.5 C 48.925781 170.378906 49.09375 171.667969 49.09375 171.667969 L 49.585938 172.542969 C 39.15625 173.304688 29.777344 174.152344 21.632812 175.066406 L 353.351562 175.066406 Z M 133.457031 168.21875 C 133.832031 167.828125 134.488281 167.867188 134.917969 168.304688 C 135.0625 168.453125 135.160156 168.628906 135.214844 168.816406 C 134.421875 168.832031 133.625 168.851562 132.832031 168.867188 Z M 132.171875 159.316406 C 132.285156 159.257812 132.425781 159.300781 132.484375 159.410156 C 132.546875 159.523438 132.503906 159.664062 132.390625 159.726562 C 132.277344 159.789062 132.136719 159.742188 132.078125 159.628906 C 132.015625 159.519531 132.058594 159.378906 132.171875 159.316406 Z M 129.050781 161.898438 C 129.164062 161.839844 129.308594 161.882812 129.367188 161.992188 C 129.425781 162.105469 129.382812 162.25 129.273438 162.308594 C 129.160156 162.371094 129.019531 162.324219 128.960938 162.214844 C 128.898438 162.101562 128.9375 161.960938 129.050781 161.898438 Z M 94.078125 160.824219 C 93.554688 161.09375 93.027344 161.132812 92.792969 160.949219 C 93.070312 161.066406 93.558594 161 94.039062 160.75 C 94.519531 160.503906 94.855469 160.148438 94.921875 159.847656 C 94.941406 160.148438 94.597656 160.554688 94.078125 160.824219 Z M 104.628906 148.679688 C 104.28125 148.054688 103.703125 148.261719 103.757812 148.988281 C 104.050781 152.835938 104.339844 156.65625 105.058594 160.402344 C 105.40625 162.230469 107.246094 163.585938 108.378906 163.074219 C 108.292969 162.960938 108.203125 162.832031 108.117188 162.683594 C 107.777344 162.125 107.894531 161.703125 108.007812 161.292969 C 108.042969 161.160156 108.078125 161.023438 108.101562 160.878906 L 104.570312 149.738281 L 108.289062 160.6875 C 108.316406 160.691406 108.339844 160.695312 108.363281 160.707031 C 108.863281 160.964844 108.984375 161.417969 109.089844 161.8125 C 109.117188 161.914062 109.144531 162.015625 109.175781 162.109375 C 109.714844 160.882812 110.101562 158.589844 109.363281 157.015625 C 107.953125 154.023438 106.28125 151.636719 104.628906 148.679688 Z M 129.148438 162.148438 L 129.195312 162.238281 L 129.253906 162.207031 L 129.207031 162.117188 L 129.296875 162.070312 L 129.265625 162.011719 L 129.171875 162.0625 L 129.125 161.96875 L 129.066406 162 L 129.117188 162.09375 L 129.027344 162.140625 L 129.054688 162.195312 Z M 129.148438 162.148438 " fill-opacity="1" fill-rule="nonzero"/></g></svg>