<?xml version="1.0" encoding="UTF-8"?>
<svg xmlns="http://www.w3.org/2000/svg" id="Layer_1" viewBox="0 0 473.55 473.57">
  <defs>
    <style>.cls-1{fill:#fafafa;}</style>
  </defs>
  <path class="cls-1" d="M273.25,415.82h-36.47c-2.83,0-5.52,1.12-7.52,3.12-1.99,2-3.11,4.69-3.12,7.52v36.47c0,5.88,4.76,10.64,10.64,10.64,5.88,0,10.64-4.76,10.64-10.64v-25.84h25.83c5.88,0,10.63-4.76,10.64-10.64,0-5.88-4.76-10.64-10.64-10.64Z"></path>
  <path class="cls-1" d="M193.01,335.58h-36.47c-2.83,0-5.52,1.12-7.52,3.12-1.99,2-3.11,4.69-3.12,7.52v36.47c0,5.88,4.76,10.64,10.64,10.64,5.88,0,10.64-4.76,10.64-10.64v-25.84h25.84c5.88,0,10.64-4.76,10.64-10.64,0-5.88-4.76-10.64-10.64-10.64Z"></path>
  <path class="cls-1" d="M193.01,415.82h-36.47c-2.83,0-5.52,1.12-7.52,3.12-2,2-3.11,4.69-3.12,7.52v36.47c0,5.88,4.76,10.64,10.64,10.64,5.88,0,10.64-4.76,10.64-10.64v-25.84h25.84c5.88,0,10.64-4.76,10.64-10.64,0-5.88-4.76-10.64-10.64-10.64Z"></path>
  <path class="cls-1" d="M273.25,335.58h-36.47c-2.83,0-5.52,1.12-7.52,3.12-1.99,2-3.11,4.69-3.12,7.52v36.47c0,5.88,4.76,10.64,10.64,10.64,5.88,0,10.64-4.76,10.64-10.64v-25.84h25.83c5.88,0,10.64-4.76,10.64-10.64,0-5.88-4.76-10.64-10.64-10.64Z"></path>
  <path class="cls-1" d="M473.51,83.02h0l-.07-.71v-.11s-.12-.69-.12-.69l-.04-.27-.3-.98-.03-.1-.22-.6-.09-.26-.49-.92-.05-.09-.34-.56-.14-.24-.64-.78-.28-.35-.25-.3-.43-.35-.53-.43-.08-.07-.61-.45-.17-.12-.16-.12L344.07,1.36l-.49-.21-1.11-.47-.18-.08-.62-.19-.31-.09-1.69-.24h-.07s-.27-.04-.27-.04h-.03s-.44-.05-.44-.05l-1.98,.25-.34,.04-.72,.22-.15,.05-1.28,.52-.24,.1-.24,.1L168.33,94.86H54.41c-3.1,0-6.06,1.36-8.08,3.71L2.57,149.63C.88,151.59,0,154.06,0,156.55c0,1.51,.32,3.03,.98,4.45,1.73,3.77,5.51,6.2,9.66,6.19H43.77v43.49s0,0,0,0c0,4.78,1.32,9.45,3.82,13.49,2.5,4.05,6.29,7.52,11.12,9.51,2.02,.83,3.78,2.28,5.01,4.08,1.24,1.83,1.93,3.93,1.94,6.32,0,.68-.06,1.39-.19,2.13h0c-.36,2.08-1.47,4.19-3.11,5.82h0c-1.63,1.64-3.74,2.75-5.82,3.11-.74,.13-1.45,.19-2.13,.19-3.15-.01-5.86-1.23-7.95-3.29-2.06-2.09-3.29-4.8-3.3-7.96,0-5.87-4.76-10.63-10.64-10.63-4.49,0-8.3,2.78-9.87,6.71h-.55l-.22,3.7v.24c0,8.95,3.65,17.12,9.52,22.98,5.83,5.84,13.95,9.47,22.84,9.51h0s.08,.01,.08,.01h.08c1.92,0,3.86-.17,5.8-.51,6.7-1.18,12.64-4.47,17.19-9.02,4.55-4.56,7.84-10.49,9.02-17.19h0c.34-1.95,.51-3.89,.51-5.81h0c0-6.76-2.08-13.1-5.63-18.3-3.55-5.2-8.55-9.32-14.47-11.76l-1.16-1.06c-.35-.54-.63-1.45-.62-2.26v-43.52H328.27V462.93c0,5.88,4.76,10.64,10.64,10.64,5.88,0,10.64-4.76,10.64-10.64V156.36l-.05-.51-.04-.42-.02-.21-.31-1.49-.04-.18-.16-.53-.11-.34-.93-1.78-.03-.06-.13-.24-36.63-51.28c-1.99-2.8-5.22-4.46-8.66-4.45h-90.86L328.27,28.89V98.2c0,5.88,4.76,10.64,10.64,10.64,5.88,0,10.64-4.76,10.64-10.64V29.26l74.3,43.71h-33.88c-2.83,0-5.52,1.12-7.52,3.12-2,2-3.11,4.69-3.12,7.52v14.59c0,5.88,4.76,10.64,10.64,10.64,5.88,0,10.64-4.76,10.64-10.64v-3.95h51.67v51.67h-55.01c-2.83,0-5.52,1.12-7.52,3.12-1.99,2-3.11,4.69-3.12,7.52V462.93c0,5.88,4.76,10.64,10.64,10.64,5.88,0,10.64-4.76,10.64-10.64V167.19h55.01c2.83,0,5.52-1.12,7.52-3.12,1.99-2,3.11-4.69,3.12-7.52V83.41l-.04-.39ZM33.77,145.92l25.53-29.79h237.65l21.28,29.79H33.77Z"></path>
  <polygon class="cls-1" points="31.42 267.09 31.41 267.09 31.41 267.09 31.42 267.09"></polygon>
  <path class="cls-1" d="M295.13,291.81h-11.25v-40.43c0-5.88-4.76-10.64-10.64-10.64-5.88,0-10.64,4.76-10.64,10.64v40.43h-44.38v-40.43c0-5.88-4.76-10.64-10.64-10.64-5.88,0-10.64,4.76-10.64,10.64v40.43h-44.38v-40.43c0-5.88-4.76-10.64-10.64-10.64-5.88,0-10.64,4.76-10.64,10.64v40.43h-25.84c-2.83,0-5.52,1.12-7.52,3.12-2,2-3.11,4.69-3.12,7.52v160.48c0,5.88,4.76,10.64,10.64,10.64,5.88,0,10.64-4.76,10.64-10.64v-3.93h0v-145.92h25.64l.16,.02,.2-.02h153.02c5.88,0,10.64-4.76,10.64-10.64,0-5.88-4.76-10.64-10.64-10.64Z"></path>
</svg>
