<?xml version="1.0" encoding="UTF-8"?>
<svg xmlns="http://www.w3.org/2000/svg" id="Layer_1" viewBox="0 0 453.76 483.54">
  <defs>
    <style>.cls-1{fill:#f5f5f5;}</style>
  </defs>
  <path class="cls-1" d="M10.4,423.83c5.75,0,10.4-4.66,10.4-10.4v-79.16h19.45c5.75,0,10.4-4.66,10.4-10.4s-4.66-10.4-10.4-10.4H20.81v-68.75h19.45c5.75,0,10.4-4.66,10.4-10.4s-4.66-10.4-10.4-10.4H20.81v-68.75h19.45c5.75,0,10.4-4.66,10.4-10.4s-4.66-10.4-10.4-10.4H20.81V20.81H119.44v250.82c0,5.75,4.66,10.4,10.4,10.4s10.4-4.66,10.4-10.4V10.4c0-2.74-1.11-5.42-3.05-7.36-1.94-1.94-4.62-3.05-7.36-3.05H10.4C7.66,0,4.98,1.11,3.05,3.05S0,7.66,0,10.4V413.43c0,5.75,4.66,10.4,10.4,10.4Z"></path>
  <path class="cls-1" d="M452.92,148.11l-35.17-82.04s0-.01,0-.02l-9.61-22.43c-1.64-3.84-5.39-6.3-9.56-6.3s-7.92,2.47-9.56,6.3l-9.62,22.43s0,0,0,.01l-35.17,82.04c-.55,1.27-.84,2.71-.84,4.1V447.38c0,19.98,16.19,36.16,36.16,36.16h38.06c19.98,0,36.16-16.19,36.16-36.16V152.21c0-1.38-.3-2.83-.84-4.1Zm-19.97,254.91h-23.98V177.54h23.98v225.49Zm-4.5,55.21c-2.81,2.79-6.58,4.49-10.86,4.5h-38.06c-4.27,0-8.05-1.7-10.86-4.5-2.79-2.81-4.49-6.58-4.5-10.86V154.34l31.65-73.83h5.47l31.65,73.83v2.39h-34.38c-2.74,0-5.42,1.11-7.36,3.05s-3.05,4.62-3.05,7.36v246.29c0,2.74,1.11,5.42,3.05,7.36s4.62,3.05,7.36,3.05h34.38v23.55c0,4.27-1.7,8.05-4.5,10.86Z"></path>
  <path class="cls-1" d="M52.11,70.54c0,10.18,8.25,18.42,18.43,18.43,10.18,0,18.42-8.25,18.43-18.43,0-10.18-8.25-18.42-18.43-18.43-10.18,0-18.42,8.25-18.43,18.43Z"></path>
  <path class="cls-1" d="M234.61,313.17c-2.94,0-5.73,1.23-7.7,3.41l-74.74,82.26c-2.76,3.04-3.48,7.45-1.81,11.21,1.66,3.76,5.4,6.19,9.51,6.19h149.47c4.11,0,7.85-2.43,9.51-6.19,1.66-3.76,.95-8.16-1.81-11.21l-74.74-82.26c-1.97-2.17-4.76-3.41-7.7-3.41Zm-51.23,82.26l51.23-56.38,51.23,56.38h-102.46Z"></path>
  <path class="cls-1" d="M309.35,462.73H33.02L234.39,227.66l66.88,82.52c3.62,4.46,10.17,5.15,14.63,1.53,4.46-3.62,5.15-10.17,1.53-14.63l-74.74-92.22c-1.94-2.4-4.86-3.81-7.94-3.85-3.08-.04-6.04,1.29-8.04,3.63L2.5,466.37c-2.63,3.07-3.24,7.44-1.55,11.12,1.69,3.68,5.4,6.06,9.45,6.06H309.35c5.75,0,10.4-4.66,10.4-10.4s-4.66-10.4-10.4-10.4Z"></path>
</svg>
